<svg width="311" height="314" viewBox="0 0 311 314" fill="none" xmlns="http://www.w3.org/2000/svg">
<path d="M286.703 57.6484H279.414V67.4609C279.414 68.1115 279.158 68.7355 278.702 69.1956C278.247 69.6556 277.629 69.9141 276.984 69.9141C276.34 69.9141 275.722 69.6556 275.266 69.1956C274.811 68.7355 274.555 68.1115 274.555 67.4609V57.6484H230.82V67.4609C230.82 68.1115 230.564 68.7355 230.109 69.1956C229.653 69.6556 229.035 69.9141 228.391 69.9141C227.746 69.9141 227.128 69.6556 226.673 69.1956C226.217 68.7355 225.961 68.1115 225.961 67.4609V57.6484H182.227V67.4609C182.227 68.1115 181.971 68.7355 181.515 69.1956C181.059 69.6556 180.441 69.9141 179.797 69.9141C179.152 69.9141 178.534 69.6556 178.079 69.1956C177.623 68.7355 177.367 68.1115 177.367 67.4609V57.6484H133.633V67.4609C133.633 68.1115 133.377 68.7355 132.921 69.1956C132.466 69.6556 131.848 69.9141 131.203 69.9141C130.559 69.9141 129.941 69.6556 129.485 69.1956C129.029 68.7355 128.773 68.1115 128.773 67.4609V57.6484H85.0391V67.4609C85.0391 68.1115 84.7831 68.7355 84.3274 69.1956C83.8718 69.6556 83.2538 69.9141 82.6094 69.9141C81.965 69.9141 81.347 69.6556 80.8913 69.1956C80.4357 68.7355 80.1797 68.1115 80.1797 67.4609V57.6484H36.4453V67.4609C36.4453 68.1115 36.1893 68.7355 35.7337 69.1956C35.278 69.6556 34.66 69.9141 34.0156 69.9141C33.3712 69.9141 32.7532 69.6556 32.2976 69.1956C31.8419 68.7355 31.5859 68.1115 31.5859 67.4609V57.6484H30.3711C27.7935 57.6484 25.3215 58.6823 23.4989 60.5225C21.6763 62.3627 20.6523 64.8585 20.6523 67.4609V258.805C20.6523 261.407 21.6763 263.903 23.4989 265.743C25.3215 267.583 27.7935 268.617 30.3711 268.617H286.703C289.281 268.617 291.753 267.583 293.575 265.743C295.398 263.903 296.422 261.407 296.422 258.805V67.4609C296.422 64.8585 295.398 62.3627 293.575 60.5225C291.753 58.6823 289.281 57.6484 286.703 57.6484ZM231.95 130.506C229.579 130.506 227.26 129.796 225.289 128.466C223.317 127.136 221.78 125.245 220.872 123.033C219.965 120.821 219.727 118.387 220.19 116.038C220.653 113.69 221.795 111.533 223.472 109.84C225.148 108.147 227.285 106.994 229.611 106.527C231.937 106.059 234.348 106.299 236.539 107.215C238.73 108.132 240.602 109.683 241.92 111.674C243.237 113.665 243.941 116.006 243.941 118.4C243.937 121.61 242.673 124.687 240.425 126.957C238.177 129.226 235.129 130.503 231.95 130.506ZM231.95 162.066C229.579 162.066 227.26 161.356 225.289 160.025C223.317 158.695 221.78 156.804 220.872 154.592C219.965 152.38 219.727 149.946 220.19 147.598C220.653 145.249 221.795 143.092 223.472 141.399C225.148 139.706 227.285 138.553 229.611 138.086C231.937 137.619 234.348 137.859 236.539 138.775C238.73 139.691 240.602 141.243 241.92 143.234C243.237 145.225 243.941 147.565 243.941 149.96C243.937 153.169 242.673 156.247 240.425 158.516C238.177 160.786 235.129 162.062 231.95 162.066ZM231.95 193.625C229.578 193.625 227.259 192.915 225.287 191.584C223.315 190.253 221.778 188.362 220.871 186.149C219.964 183.936 219.727 181.501 220.191 179.153C220.655 176.804 221.798 174.647 223.476 172.954C225.154 171.262 227.292 170.11 229.618 169.644C231.945 169.178 234.356 169.42 236.547 170.338C238.738 171.256 240.61 172.81 241.926 174.802C243.242 176.795 243.943 179.136 243.941 181.531C243.937 184.741 242.673 187.818 240.425 190.088C238.177 192.358 235.129 193.634 231.95 193.637V193.625ZM231.95 200.985C234.322 200.985 236.64 201.695 238.612 203.025C240.584 204.355 242.12 206.246 243.028 208.458C243.935 210.67 244.173 213.104 243.71 215.453C243.248 217.801 242.106 219.958 240.429 221.651C238.752 223.344 236.615 224.497 234.289 224.964C231.963 225.431 229.553 225.192 227.362 224.275C225.171 223.359 223.298 221.807 221.98 219.817C220.663 217.826 219.96 215.485 219.96 213.091C219.966 209.883 221.232 206.809 223.479 204.542C225.727 202.275 228.773 201 231.95 200.997V200.985ZM193.731 130.506C191.36 130.506 189.041 129.796 187.07 128.466C185.098 127.136 183.561 125.245 182.653 123.033C181.746 120.821 181.508 118.387 181.971 116.038C182.434 113.69 183.576 111.533 185.253 109.84C186.929 108.147 189.066 106.994 191.392 106.527C193.718 106.059 196.129 106.299 198.32 107.215C200.511 108.132 202.383 109.683 203.701 111.674C205.018 113.665 205.722 116.006 205.722 118.4C205.718 121.61 204.454 124.687 202.206 126.957C199.958 129.226 196.91 130.503 193.731 130.506ZM193.731 162.066C191.36 162.066 189.041 161.356 187.07 160.025C185.098 158.695 183.561 156.804 182.653 154.592C181.746 152.38 181.508 149.946 181.971 147.598C182.434 145.249 183.576 143.092 185.253 141.399C186.929 139.706 189.066 138.553 191.392 138.086C193.718 137.619 196.129 137.859 198.32 138.775C200.511 139.691 202.383 141.243 203.701 143.234C205.018 145.225 205.722 147.565 205.722 149.96C205.718 153.169 204.454 156.247 202.206 158.516C199.958 160.786 196.91 162.062 193.731 162.066ZM193.731 193.625C191.36 193.625 189.041 192.915 187.07 191.585C185.098 190.255 183.561 188.364 182.653 186.152C181.746 183.94 181.508 181.506 181.971 179.157C182.434 176.809 183.576 174.652 185.253 172.959C186.929 171.266 189.066 170.113 191.392 169.645C193.718 169.178 196.129 169.418 198.32 170.334C200.511 171.251 202.383 172.802 203.701 174.793C205.018 176.784 205.722 179.125 205.722 181.519C205.722 184.731 204.459 187.811 202.21 190.084C199.962 192.356 196.912 193.634 193.731 193.637V193.625ZM193.731 225.185C191.36 225.185 189.041 224.475 187.07 223.144C185.098 221.814 183.561 219.923 182.653 217.711C181.746 215.499 181.508 213.065 181.971 210.717C182.434 208.368 183.576 206.211 185.253 204.518C186.929 202.825 189.066 201.672 191.392 201.205C193.718 200.738 196.129 200.977 198.32 201.894C200.511 202.81 202.383 204.362 203.701 206.353C205.018 208.343 205.722 210.684 205.722 213.078C205.722 216.29 204.459 219.371 202.21 221.643C199.962 223.915 196.912 225.194 193.731 225.197V225.185ZM193.731 232.544C196.103 232.544 198.421 233.254 200.393 234.584C202.365 235.914 203.901 237.805 204.809 240.017C205.716 242.229 205.954 244.664 205.491 247.012C205.029 249.36 203.887 251.517 202.21 253.211C200.533 254.904 198.396 256.057 196.07 256.524C193.744 256.991 191.334 256.751 189.143 255.835C186.952 254.919 185.079 253.367 183.761 251.376C182.444 249.385 181.741 247.045 181.741 244.65C181.747 241.443 183.013 238.368 185.26 236.101C187.508 233.834 190.554 232.559 193.731 232.556V232.544ZM155.5 130.506C153.128 130.506 150.81 129.796 148.838 128.466C146.867 127.136 145.33 125.245 144.422 123.033C143.515 120.821 143.277 118.387 143.74 116.038C144.203 113.69 145.345 111.533 147.021 109.84C148.698 108.147 150.835 106.994 153.161 106.527C155.487 106.059 157.898 106.299 160.089 107.215C162.28 108.132 164.152 109.683 165.47 111.674C166.787 113.665 167.491 116.006 167.491 118.4C167.487 121.61 166.223 124.687 163.975 126.957C161.727 129.226 158.679 130.503 155.5 130.506ZM155.5 162.066C153.128 162.066 150.81 161.356 148.838 160.025C146.867 158.695 145.33 156.804 144.422 154.592C143.515 152.38 143.277 149.946 143.74 147.598C144.203 145.249 145.345 143.092 147.021 141.399C148.698 139.706 150.835 138.553 153.161 138.086C155.487 137.619 157.898 137.859 160.089 138.775C162.28 139.691 164.152 141.243 165.47 143.234C166.787 145.225 167.491 147.565 167.491 149.96C167.487 153.169 166.223 156.247 163.975 158.516C161.727 160.786 158.679 162.062 155.5 162.066ZM155.5 193.625C153.128 193.625 150.81 192.915 148.838 191.585C146.867 190.255 145.33 188.364 144.422 186.152C143.515 183.94 143.277 181.506 143.74 179.157C144.203 176.809 145.345 174.652 147.021 172.959C148.698 171.266 150.835 170.113 153.161 169.645C155.487 169.178 157.898 169.418 160.089 170.334C162.28 171.251 164.152 172.802 165.47 174.793C166.787 176.784 167.491 179.125 167.491 181.519C167.491 184.731 166.228 187.811 163.979 190.084C161.731 192.356 158.681 193.634 155.5 193.637V193.625ZM155.5 225.185C153.128 225.185 150.81 224.475 148.838 223.144C146.867 221.814 145.33 219.923 144.422 217.711C143.515 215.499 143.277 213.065 143.74 210.717C144.203 208.368 145.345 206.211 147.021 204.518C148.698 202.825 150.835 201.672 153.161 201.205C155.487 200.738 157.898 200.977 160.089 201.894C162.28 202.81 164.152 204.362 165.47 206.353C166.787 208.343 167.491 210.684 167.491 213.078C167.491 216.29 166.228 219.371 163.979 221.643C161.731 223.915 158.681 225.194 155.5 225.197V225.185ZM155.5 232.544C157.872 232.544 160.19 233.254 162.162 234.584C164.133 235.914 165.67 237.805 166.578 240.017C167.485 242.229 167.723 244.664 167.26 247.012C166.797 249.36 165.655 251.517 163.979 253.211C162.302 254.904 160.165 256.057 157.839 256.524C155.513 256.991 153.102 256.751 150.911 255.835C148.72 254.919 146.848 253.367 145.53 251.376C144.213 249.385 143.509 247.045 143.509 244.65C143.516 241.443 144.782 238.368 147.029 236.101C149.277 233.834 152.323 232.559 155.5 232.556V232.544ZM85.0391 86.6812H36.4453C35.8009 86.6812 35.1829 86.4227 34.7273 85.9627C34.2716 85.5026 34.0156 84.8787 34.0156 84.228C34.0156 83.5774 34.2716 82.9535 34.7273 82.4934C35.1829 82.0334 35.8009 81.7749 36.4453 81.7749H85.0391C85.6835 81.7749 86.3015 82.0334 86.7571 82.4934C87.2128 82.9535 87.4688 83.5774 87.4688 84.228C87.4688 84.8787 87.2128 85.5026 86.7571 85.9627C86.3015 86.4227 85.6835 86.6812 85.0391 86.6812ZM87.4688 208.013L82.4271 213.103L87.4688 218.181C87.6947 218.409 87.8739 218.679 87.9961 218.977C88.1184 219.275 88.1813 219.594 88.1813 219.917C88.1813 220.239 88.1184 220.558 87.9961 220.856C87.8739 221.154 87.6947 221.424 87.4688 221.652C87.2431 221.88 86.9751 222.061 86.6802 222.185C86.3852 222.308 86.069 222.372 85.7497 222.372C85.4304 222.372 85.1143 222.308 84.8193 222.185C84.5244 222.061 84.2564 221.88 84.0307 221.652L78.9891 216.562L73.9475 221.652C73.7219 221.88 73.4539 222.061 73.159 222.185C72.864 222.308 72.5478 222.372 72.2285 222.372C71.9092 222.372 71.5931 222.308 71.2981 222.185C71.0031 222.061 70.7352 221.88 70.5095 221.652C70.2836 221.424 70.1044 221.154 69.9821 220.856C69.8599 220.558 69.7969 220.239 69.7969 219.917C69.7969 219.594 69.8599 219.275 69.9821 218.977C70.1044 218.679 70.2836 218.409 70.5095 218.181L75.5511 213.091L70.5095 208C70.2836 207.773 70.1044 207.502 69.9821 207.204C69.8599 206.906 69.7969 206.587 69.7969 206.265C69.7969 205.942 69.8599 205.623 69.9821 205.325C70.1044 205.028 70.2836 204.757 70.5095 204.529C70.7352 204.301 71.0031 204.12 71.2981 203.997C71.5931 203.873 71.9092 203.81 72.2285 203.81C72.5478 203.81 72.864 203.873 73.159 203.997C73.4539 204.12 73.7219 204.301 73.9475 204.529L78.9891 209.62L84.0307 204.529C84.2564 204.301 84.5244 204.12 84.8193 203.997C85.1143 203.873 85.4304 203.81 85.7497 203.81C86.069 203.81 86.3852 203.873 86.6802 203.997C86.9751 204.12 87.2431 204.301 87.4688 204.529C87.6947 204.757 87.8739 205.028 87.9961 205.325C88.1184 205.623 88.1813 205.942 88.1813 206.265C88.1813 206.587 88.1184 206.906 87.9961 207.204C87.8739 207.502 87.6947 207.773 87.4688 208V208.013ZM78.9648 232.544C81.3363 232.544 83.6546 233.254 85.6264 234.584C87.5982 235.914 89.1351 237.805 90.0426 240.017C90.9502 242.229 91.1876 244.664 90.725 247.012C90.2623 249.36 89.1203 251.517 87.4434 253.211C85.7665 254.904 83.63 256.057 81.3041 256.524C78.9781 256.991 76.5673 256.751 74.3763 255.835C72.1853 254.919 70.3126 253.367 68.9951 251.376C67.6776 249.385 66.9743 247.045 66.9743 244.65C66.9775 243.055 67.2927 241.475 67.9019 240.003C68.5111 238.531 69.4022 237.195 70.5242 236.071C71.6461 234.947 72.9768 234.058 74.4399 233.455C75.903 232.852 77.4696 232.547 79.0499 232.556L78.9648 232.544ZM78.9648 193.625C76.596 193.611 74.2845 192.888 72.322 191.548C70.3595 190.209 68.834 188.312 67.938 186.098C67.042 183.884 66.8156 181.452 67.2875 179.108C67.7593 176.764 68.9082 174.614 70.5892 172.929C72.2702 171.243 74.4079 170.099 76.7326 169.639C79.0574 169.179 81.4649 169.425 83.6514 170.345C85.8379 171.265 87.7054 172.819 89.0183 174.81C90.3312 176.801 91.0306 179.139 91.0282 181.531C91.025 184.739 89.7624 187.814 87.5171 190.084C85.2717 192.353 82.2269 193.631 79.0499 193.637L78.9648 193.625ZM78.9648 162.066C76.5933 162.066 74.2751 161.356 72.3033 160.025C70.3314 158.695 68.7946 156.804 67.8871 154.592C66.9795 152.38 66.7421 149.946 67.2047 147.598C67.6674 145.249 68.8094 143.092 70.4863 141.399C72.1632 139.706 74.2997 138.553 76.6256 138.086C78.9515 137.619 81.3624 137.859 83.5534 138.775C85.7444 139.691 87.6171 141.243 88.9346 143.234C90.2521 145.225 90.9554 147.565 90.9554 149.96C90.9523 153.154 89.6996 156.219 87.47 158.486C85.2404 160.753 82.2142 162.04 79.0499 162.066H78.9648ZM40.7337 162.066C38.3622 162.066 36.044 161.356 34.0721 160.025C32.1003 158.695 30.5635 156.804 29.6559 154.592C28.7484 152.38 28.5109 149.946 28.9736 147.598C29.4363 145.249 30.5782 143.092 32.2551 141.399C33.932 139.706 36.0685 138.553 38.3945 138.086C40.7204 137.619 43.1313 137.859 45.3223 138.775C47.5133 139.691 49.3859 141.243 50.7035 143.234C52.021 145.225 52.7242 147.565 52.7242 149.96C52.7211 153.154 51.4685 156.219 49.2389 158.486C47.0093 160.753 43.9831 162.04 40.8187 162.066H40.7337ZM40.7337 193.625C38.3654 193.608 36.0551 192.883 34.0942 191.542C32.1333 190.201 30.6097 188.304 29.7156 186.09C28.8215 183.876 28.5968 181.444 29.07 179.1C29.5432 176.757 30.6931 174.608 32.3745 172.924C34.056 171.24 36.1937 170.097 38.5181 169.638C40.8425 169.179 43.2493 169.426 45.4352 170.346C47.621 171.267 49.4878 172.821 50.8001 174.811C52.1125 176.802 52.8116 179.14 52.8093 181.531C52.806 184.741 51.5417 187.818 49.2938 190.088C47.0458 192.358 43.9978 193.634 40.8187 193.637L40.7337 193.625ZM40.7337 225.185C38.3622 225.185 36.044 224.475 34.0721 223.144C32.1003 221.814 30.5635 219.923 29.6559 217.711C28.7484 215.499 28.5109 213.065 28.9736 210.717C29.4363 208.368 30.5782 206.211 32.2551 204.518C33.932 202.825 36.0685 201.672 38.3945 201.205C40.7204 200.738 43.1313 200.977 45.3223 201.894C47.5133 202.81 49.3859 204.362 50.7035 206.353C52.021 208.343 52.7242 210.684 52.7242 213.078C52.7243 216.276 51.4731 219.343 49.2432 221.613C47.0132 223.883 43.9852 225.171 40.8187 225.197L40.7337 225.185ZM40.7337 232.544C43.1052 232.544 45.4235 233.254 47.3953 234.584C49.3671 235.914 50.904 237.805 51.8115 240.017C52.719 242.229 52.9565 244.664 52.4938 247.012C52.0312 249.36 50.8892 251.517 49.2123 253.211C47.5354 254.904 45.3989 256.057 43.0729 256.524C40.747 256.991 38.3361 256.751 36.1451 255.835C33.9542 254.919 32.0815 253.367 30.764 251.376C29.4464 249.385 28.7432 247.045 28.7432 244.65C28.7464 243.055 29.0616 241.475 29.6708 240.003C30.2799 238.531 31.1711 237.195 32.293 236.071C33.415 234.947 34.7457 234.058 36.2088 233.455C37.6718 232.852 39.2385 232.547 40.8187 232.556L40.7337 232.544ZM270.096 200.985C272.468 200.985 274.786 201.695 276.758 203.025C278.73 204.355 280.266 206.246 281.174 208.458C282.082 210.67 282.319 213.104 281.856 215.453C281.394 217.801 280.252 219.958 278.575 221.651C276.898 223.344 274.761 224.497 272.435 224.964C270.11 225.431 267.699 225.192 265.508 224.275C263.317 223.359 261.444 221.807 260.126 219.817C258.809 217.826 258.106 215.485 258.106 213.091C258.109 211.495 258.424 209.916 259.033 208.444C259.642 206.971 260.534 205.635 261.656 204.511C262.777 203.388 264.108 202.499 265.571 201.896C267.034 201.293 268.601 200.987 270.181 200.997L270.096 200.985ZM270.096 193.625C267.725 193.625 265.406 192.915 263.435 191.585C261.463 190.255 259.926 188.364 259.018 186.152C258.111 183.94 257.873 181.506 258.336 179.157C258.799 176.809 259.941 174.652 261.618 172.959C263.295 171.266 265.431 170.113 267.757 169.645C270.083 169.178 272.494 169.418 274.685 170.334C276.876 171.251 278.748 172.802 280.066 174.793C281.383 176.784 282.087 179.125 282.087 181.519C282.087 184.716 280.836 187.784 278.606 190.054C276.376 192.323 273.348 193.612 270.181 193.637L270.096 193.625ZM270.096 162.066C267.725 162.066 265.406 161.356 263.435 160.025C261.463 158.695 259.926 156.804 259.018 154.592C258.111 152.38 257.873 149.946 258.336 147.598C258.799 145.249 259.941 143.092 261.618 141.399C263.295 139.706 265.431 138.553 267.757 138.086C270.083 137.619 272.494 137.859 274.685 138.775C276.876 139.691 278.748 141.243 280.066 143.234C281.383 145.225 282.087 147.565 282.087 149.96C282.084 153.154 280.831 156.219 278.601 158.486C276.372 160.753 273.346 162.04 270.181 162.066H270.096ZM270.096 130.506C267.725 130.506 265.406 129.796 263.435 128.466C261.463 127.136 259.926 125.245 259.018 123.033C258.111 120.821 257.873 118.387 258.336 116.038C258.799 113.69 259.941 111.533 261.618 109.84C263.295 108.147 265.431 106.994 267.757 106.527C270.083 106.059 272.494 106.299 274.685 107.215C276.876 108.132 278.748 109.683 280.066 111.674C281.383 113.665 282.087 116.006 282.087 118.4C282.084 121.595 280.831 124.659 278.601 126.927C276.372 129.194 273.346 130.48 270.181 130.506H270.096ZM109.336 81.7749H274.555C275.199 81.7749 275.817 82.0334 276.273 82.4934C276.728 82.9535 276.984 83.5774 276.984 84.228C276.984 84.8787 276.728 85.5026 276.273 85.9627C275.817 86.4227 275.199 86.6812 274.555 86.6812H109.336C108.692 86.6812 108.074 86.4227 107.618 85.9627C107.162 85.5026 106.906 84.8787 106.906 84.228C106.906 83.5774 107.162 82.9535 107.618 82.4934C108.074 82.0334 108.692 81.7749 109.336 81.7749ZM117.269 232.556C119.64 232.556 121.959 233.266 123.93 234.597C125.902 235.927 127.439 237.817 128.347 240.03C129.254 242.242 129.492 244.676 129.029 247.024C128.566 249.373 127.424 251.53 125.747 253.223C124.071 254.916 121.934 256.069 119.608 256.536C117.282 257.003 114.871 256.763 112.68 255.847C110.489 254.931 108.617 253.379 107.299 251.388C105.982 249.397 105.278 247.057 105.278 244.662C105.282 241.453 106.546 238.375 108.794 236.106C111.042 233.836 114.09 232.56 117.269 232.556ZM117.269 225.197C114.897 225.197 112.579 224.487 110.607 223.157C108.635 221.826 107.099 219.936 106.191 217.724C105.284 215.511 105.046 213.077 105.509 210.729C105.971 208.381 107.113 206.223 108.79 204.53C110.467 202.837 112.604 201.684 114.93 201.217C117.256 200.75 119.666 200.99 121.857 201.906C124.048 202.822 125.921 204.374 127.239 206.365C128.556 208.356 129.259 210.696 129.259 213.091C129.256 216.3 127.992 219.378 125.744 221.647C123.496 223.917 120.448 225.194 117.269 225.197ZM117.269 193.637C114.897 193.637 112.579 192.927 110.607 191.597C108.635 190.267 107.099 188.376 106.191 186.164C105.284 183.952 105.046 181.518 105.509 179.169C105.971 176.821 107.113 174.664 108.79 172.971C110.467 171.278 112.604 170.125 114.93 169.658C117.256 169.191 119.666 169.43 121.857 170.347C124.048 171.263 125.921 172.815 127.239 174.805C128.556 176.796 129.259 179.137 129.259 181.531C129.256 184.741 127.992 187.818 125.744 190.088C123.496 192.358 120.448 193.634 117.269 193.637ZM117.269 162.078C114.897 162.078 112.579 161.368 110.607 160.038C108.635 158.707 107.099 156.817 106.191 154.605C105.284 152.393 105.046 149.958 105.509 147.61C105.971 145.262 107.113 143.105 108.79 141.411C110.467 139.718 112.604 138.565 114.93 138.098C117.256 137.631 119.666 137.871 121.857 138.787C124.048 139.703 125.921 141.255 127.239 143.246C128.556 145.237 129.259 147.577 129.259 149.972C129.253 153.179 127.987 156.254 125.74 158.521C123.492 160.788 120.446 162.062 117.269 162.066V162.078ZM117.269 130.519C114.897 130.519 112.579 129.809 110.607 128.478C108.635 127.148 107.099 125.257 106.191 123.045C105.284 120.833 105.046 118.399 105.509 116.051C105.971 113.702 107.113 111.545 108.79 109.852C110.467 108.159 112.604 107.006 114.93 106.539C117.256 106.072 119.666 106.311 121.857 107.228C124.048 108.144 125.921 109.696 127.239 111.687C128.556 113.677 129.259 116.018 129.259 118.412C129.253 121.62 127.987 124.694 125.74 126.961C123.492 129.228 120.446 130.503 117.269 130.506V130.519Z" fill="#EFFAFE"/>
<path d="M40.8186 251.862C44.757 251.862 47.9498 248.639 47.9498 244.662C47.9498 240.686 44.757 237.462 40.8186 237.462C36.8802 237.462 33.6875 240.686 33.6875 244.662C33.6875 248.639 36.8802 251.862 40.8186 251.862Z" fill="#EB5639"/>
<path d="M40.8186 220.291C44.757 220.291 47.9498 217.067 47.9498 213.091C47.9498 209.114 44.757 205.891 40.8186 205.891C36.8802 205.891 33.6875 209.114 33.6875 213.091C33.6875 217.067 36.8802 220.291 40.8186 220.291Z" fill="#EB5639"/>
<path d="M40.8186 188.731C44.757 188.731 47.9498 185.508 47.9498 181.531C47.9498 177.555 44.757 174.331 40.8186 174.331C36.8802 174.331 33.6875 177.555 33.6875 181.531C33.6875 185.508 36.8802 188.731 40.8186 188.731Z" fill="#EB5639"/>
<path d="M40.8186 157.172C44.757 157.172 47.9498 153.948 47.9498 149.972C47.9498 145.995 44.757 142.772 40.8186 142.772C36.8802 142.772 33.6875 145.995 33.6875 149.972C33.6875 153.948 36.8802 157.172 40.8186 157.172Z" fill="#EB5639"/>
<path d="M79.0498 157.172C82.9882 157.172 86.181 153.948 86.181 149.972C86.181 145.995 82.9882 142.772 79.0498 142.772C75.1114 142.772 71.9187 145.995 71.9187 149.972C71.9187 153.948 75.1114 157.172 79.0498 157.172Z" fill="#EFFAFE"/>
<path d="M79.0498 188.731C82.9882 188.731 86.181 185.508 86.181 181.531C86.181 177.555 82.9882 174.331 79.0498 174.331C75.1114 174.331 71.9187 177.555 71.9187 181.531C71.9187 185.508 75.1114 188.731 79.0498 188.731Z" fill="#EFFAFE"/>
<path d="M79.0498 251.862C82.9882 251.862 86.181 248.639 86.181 244.662C86.181 240.686 82.9882 237.462 79.0498 237.462C75.1114 237.462 71.9187 240.686 71.9187 244.662C71.9187 248.639 75.1114 251.862 79.0498 251.862Z" fill="#EFFAFE"/>
<path d="M117.269 157.172C121.207 157.172 124.4 153.948 124.4 149.972C124.4 145.995 121.207 142.772 117.269 142.772C113.33 142.772 110.138 145.995 110.138 149.972C110.138 153.948 113.33 157.172 117.269 157.172Z" fill="#EFFAFE"/>
<path d="M117.269 188.731C121.207 188.731 124.4 185.508 124.4 181.531C124.4 177.555 121.207 174.331 117.269 174.331C113.33 174.331 110.138 177.555 110.138 181.531C110.138 185.508 113.33 188.731 117.269 188.731Z" fill="#EFFAFE"/>
<path d="M117.269 251.862C121.207 251.862 124.4 248.639 124.4 244.662C124.4 240.686 121.207 237.462 117.269 237.462C113.33 237.462 110.138 240.686 110.138 244.662C110.138 248.639 113.33 251.862 117.269 251.862Z" fill="#EFFAFE"/>
<path d="M117.269 220.291C121.207 220.291 124.4 217.067 124.4 213.091C124.4 209.114 121.207 205.891 117.269 205.891C113.33 205.891 110.138 209.114 110.138 213.091C110.138 217.067 113.33 220.291 117.269 220.291Z" fill="#EFFAFE"/>
<path d="M231.95 125.6C235.889 125.6 239.081 122.377 239.081 118.4C239.081 114.424 235.889 111.2 231.95 111.2C228.012 111.2 224.819 114.424 224.819 118.4C224.819 122.377 228.012 125.6 231.95 125.6Z" fill="#40BDFF"/>
<path d="M231.95 188.731C235.889 188.731 239.081 185.508 239.081 181.531C239.081 177.555 235.889 174.331 231.95 174.331C228.012 174.331 224.819 177.555 224.819 181.531C224.819 185.508 228.012 188.731 231.95 188.731Z" fill="#40BDFF"/>
<path d="M231.95 157.172C235.889 157.172 239.081 153.948 239.081 149.972C239.081 145.995 235.889 142.772 231.95 142.772C228.012 142.772 224.819 145.995 224.819 149.972C224.819 153.948 228.012 157.172 231.95 157.172Z" fill="#40BDFF"/>
<path d="M231.95 220.291C235.889 220.291 239.081 217.067 239.081 213.091C239.081 209.114 235.889 205.891 231.95 205.891C228.012 205.891 224.819 209.114 224.819 213.091C224.819 217.067 228.012 220.291 231.95 220.291Z" fill="#40BDFF"/>
<path d="M286.703 57.6484H280.629C283.206 57.6484 285.678 58.6823 287.501 60.5225C289.324 62.3627 290.348 64.8585 290.348 67.4609V258.805C290.348 261.407 289.324 263.903 287.501 265.743C285.678 267.583 283.206 268.617 280.629 268.617H286.703C289.281 268.617 291.753 267.583 293.575 265.743C295.398 263.903 296.422 261.407 296.422 258.805V67.4609C296.422 64.8585 295.398 62.3627 293.575 60.5225C291.753 58.6823 289.281 57.6484 286.703 57.6484Z" fill="#DDF7FF"/>
<path d="M270.181 125.6C274.12 125.6 277.312 122.377 277.312 118.4C277.312 114.424 274.12 111.2 270.181 111.2C266.243 111.2 263.05 114.424 263.05 118.4C263.05 122.377 266.243 125.6 270.181 125.6Z" fill="#EFFAFE"/>
<path d="M270.181 188.731C274.12 188.731 277.312 185.508 277.312 181.531C277.312 177.555 274.12 174.331 270.181 174.331C266.243 174.331 263.05 177.555 263.05 181.531C263.05 185.508 266.243 188.731 270.181 188.731Z" fill="#EFFAFE"/>
<path d="M270.181 157.172C274.12 157.172 277.312 153.948 277.312 149.972C277.312 145.995 274.12 142.772 270.181 142.772C266.243 142.772 263.05 145.995 263.05 149.972C263.05 153.948 266.243 157.172 270.181 157.172Z" fill="#EFFAFE"/>
<path d="M155.5 157.172C159.438 157.172 162.631 153.948 162.631 149.972C162.631 145.995 159.438 142.772 155.5 142.772C151.562 142.772 148.369 145.995 148.369 149.972C148.369 153.948 151.562 157.172 155.5 157.172Z" fill="#EFFAFE"/>
<path d="M155.5 188.731C159.438 188.731 162.631 185.508 162.631 181.531C162.631 177.555 159.438 174.331 155.5 174.331C151.562 174.331 148.369 177.555 148.369 181.531C148.369 185.508 151.562 188.731 155.5 188.731Z" fill="#EFFAFE"/>
<path d="M155.5 251.862C159.438 251.862 162.631 248.639 162.631 244.662C162.631 240.686 159.438 237.462 155.5 237.462C151.562 237.462 148.369 240.686 148.369 244.662C148.369 248.639 151.562 251.862 155.5 251.862Z" fill="#EFFAFE"/>
<path d="M155.5 220.291C159.438 220.291 162.631 217.067 162.631 213.091C162.631 209.114 159.438 205.891 155.5 205.891C151.562 205.891 148.369 209.114 148.369 213.091C148.369 217.067 151.562 220.291 155.5 220.291Z" fill="#EFFAFE"/>
<path d="M155.5 125.6C159.438 125.6 162.631 122.377 162.631 118.4C162.631 114.424 159.438 111.2 155.5 111.2C151.562 111.2 148.369 114.424 148.369 118.4C148.369 122.377 151.562 125.6 155.5 125.6Z" fill="#EFFAFE"/>
<path d="M193.731 251.862C197.67 251.862 200.862 248.639 200.862 244.662C200.862 240.686 197.67 237.462 193.731 237.462C189.793 237.462 186.6 240.686 186.6 244.662C186.6 248.639 189.793 251.862 193.731 251.862Z" fill="#EFFAFE"/>
<path d="M193.731 157.172C197.67 157.172 200.862 153.948 200.862 149.972C200.862 145.995 197.67 142.772 193.731 142.772C189.793 142.772 186.6 145.995 186.6 149.972C186.6 153.948 189.793 157.172 193.731 157.172Z" fill="#EFFAFE"/>
<path d="M193.731 125.6C197.67 125.6 200.862 122.377 200.862 118.4C200.862 114.424 197.67 111.2 193.731 111.2C189.793 111.2 186.6 114.424 186.6 118.4C186.6 122.377 189.793 125.6 193.731 125.6Z" fill="#EFFAFE"/>
<path d="M193.731 188.731C197.67 188.731 200.862 185.508 200.862 181.531C200.862 177.555 197.67 174.331 193.731 174.331C189.793 174.331 186.6 177.555 186.6 181.531C186.6 185.508 189.793 188.731 193.731 188.731Z" fill="#EFFAFE"/>
<path d="M193.731 220.291C197.67 220.291 200.862 217.067 200.862 213.091C200.862 209.114 197.67 205.891 193.731 205.891C189.793 205.891 186.6 209.114 186.6 213.091C186.6 217.067 189.793 220.291 193.731 220.291Z" fill="#EFFAFE"/>
<path d="M270.181 220.291C274.12 220.291 277.312 217.067 277.312 213.091C277.312 209.114 274.12 205.891 270.181 205.891C266.243 205.891 263.05 209.114 263.05 213.091C263.05 217.067 266.243 220.291 270.181 220.291Z" fill="#EFFAFE"/>
<path d="M117.269 125.6C121.207 125.6 124.4 122.377 124.4 118.4C124.4 114.424 121.207 111.2 117.269 111.2C113.33 111.2 110.138 114.424 110.138 118.4C110.138 122.377 113.33 125.6 117.269 125.6Z" fill="#EFFAFE"/>
<path d="M117.269 111.212C116.653 111.214 116.041 111.297 115.447 111.458C116.965 111.863 118.308 112.765 119.266 114.022C120.225 115.279 120.744 116.82 120.744 118.406C120.744 119.992 120.225 121.534 119.266 122.791C118.308 124.047 116.965 124.949 115.447 125.355C116.424 125.612 117.445 125.657 118.441 125.485C119.437 125.314 120.385 124.93 121.223 124.36C122.061 123.79 122.769 123.046 123.3 122.179C123.831 121.311 124.174 120.339 124.304 119.327C124.434 118.316 124.35 117.288 124.056 116.312C123.763 115.335 123.267 114.434 122.601 113.666C121.936 112.898 121.116 112.283 120.197 111.86C119.277 111.436 118.279 111.216 117.269 111.212Z" fill="#DDF7FF"/>
<path d="M155.5 111.212C154.885 111.214 154.272 111.297 153.678 111.458C155.196 111.863 156.539 112.765 157.498 114.022C158.456 115.279 158.976 116.82 158.976 118.406C158.976 119.992 158.456 121.534 157.498 122.791C156.539 124.047 155.196 124.949 153.678 125.355C154.655 125.612 155.676 125.657 156.672 125.485C157.668 125.314 158.617 124.93 159.454 124.36C160.292 123.79 161 123.046 161.532 122.179C162.063 121.311 162.405 120.339 162.535 119.327C162.666 118.316 162.581 117.288 162.288 116.312C161.994 115.335 161.498 114.434 160.832 113.666C160.167 112.898 159.347 112.283 158.428 111.86C157.508 111.436 156.51 111.216 155.5 111.212Z" fill="#DDF7FF"/>
<path d="M193.731 111.212C193.116 111.214 192.503 111.297 191.909 111.458C193.428 111.863 194.771 112.765 195.729 114.022C196.687 115.279 197.207 116.82 197.207 118.406C197.207 119.992 196.687 121.534 195.729 122.791C194.771 124.047 193.428 124.949 191.909 125.355C192.887 125.612 193.907 125.657 194.903 125.485C195.899 125.314 196.848 124.93 197.686 124.36C198.523 123.79 199.232 123.046 199.763 122.179C200.294 121.311 200.636 120.339 200.766 119.327C200.897 118.316 200.812 117.288 200.519 116.312C200.225 115.335 199.729 114.434 199.064 113.666C198.398 112.898 197.578 112.283 196.659 111.86C195.74 111.436 194.742 111.216 193.731 111.212Z" fill="#DDF7FF"/>
<path d="M270.181 111.212C269.566 111.214 268.953 111.297 268.359 111.458C269.878 111.863 271.221 112.765 272.179 114.022C273.137 115.279 273.657 116.82 273.657 118.406C273.657 119.992 273.137 121.534 272.179 122.791C271.221 124.047 269.878 124.949 268.359 125.355C269.337 125.612 270.357 125.657 271.353 125.485C272.349 125.314 273.298 124.93 274.136 124.36C274.973 123.79 275.681 123.046 276.213 122.179C276.744 121.311 277.086 120.339 277.216 119.327C277.347 118.316 277.262 117.288 276.969 116.312C276.675 115.335 276.179 114.434 275.514 113.666C274.848 112.898 274.028 112.283 273.109 111.86C272.19 111.436 271.192 111.216 270.181 111.212Z" fill="#DDF7FF"/>
<path d="M231.95 111.212C231.335 111.214 230.722 111.297 230.128 111.458C231.647 111.863 232.99 112.765 233.948 114.022C234.906 115.279 235.426 116.82 235.426 118.406C235.426 119.992 234.906 121.534 233.948 122.791C232.99 124.047 231.647 124.949 230.128 125.355C231.106 125.612 232.126 125.657 233.122 125.485C234.118 125.314 235.067 124.93 235.905 124.36C236.742 123.79 237.451 123.046 237.982 122.179C238.513 121.311 238.855 120.339 238.985 119.327C239.116 118.316 239.031 117.288 238.738 116.312C238.444 115.335 237.948 114.434 237.283 113.666C236.617 112.898 235.797 112.283 234.878 111.86C233.959 111.436 232.961 111.216 231.95 111.212Z" fill="#2197F7"/>
<path d="M231.95 142.772C231.335 142.774 230.722 142.856 230.128 143.017C231.647 143.423 232.99 144.325 233.948 145.581C234.906 146.838 235.426 148.38 235.426 149.966C235.426 151.552 234.906 153.093 233.948 154.35C232.99 155.607 231.647 156.508 230.128 156.914C231.106 157.172 232.126 157.216 233.122 157.045C234.118 156.874 235.067 156.49 235.905 155.92C236.742 155.35 237.451 154.606 237.982 153.738C238.513 152.87 238.855 151.898 238.985 150.887C239.116 149.875 239.031 148.847 238.738 147.871C238.444 146.895 237.948 145.993 237.283 145.226C236.617 144.458 235.797 143.842 234.878 143.419C233.959 142.996 232.961 142.775 231.95 142.772Z" fill="#2197F7"/>
<path d="M231.95 174.331C231.335 174.333 230.722 174.415 230.128 174.577C231.647 174.982 232.99 175.884 233.948 177.141C234.906 178.397 235.426 179.939 235.426 181.525C235.426 183.111 234.906 184.653 233.948 185.909C232.99 187.166 231.647 188.068 230.128 188.474C231.106 188.731 232.126 188.776 233.122 188.604C234.118 188.433 235.067 188.049 235.905 187.479C236.742 186.909 237.451 186.165 237.982 185.298C238.513 184.43 238.855 183.458 238.985 182.446C239.116 181.435 239.031 180.407 238.738 179.43C238.444 178.454 237.948 177.552 237.283 176.785C236.617 176.017 235.797 175.401 234.878 174.978C233.959 174.555 232.961 174.335 231.95 174.331Z" fill="#2197F7"/>
<path d="M231.95 205.903C231.335 205.905 230.722 205.987 230.128 206.148C231.647 206.554 232.99 207.456 233.948 208.712C234.906 209.969 235.426 211.511 235.426 213.097C235.426 214.683 234.906 216.224 233.948 217.481C232.99 218.738 231.647 219.64 230.128 220.045C231.106 220.303 232.126 220.348 233.122 220.176C234.118 220.005 235.067 219.621 235.905 219.051C236.742 218.481 237.451 217.737 237.982 216.869C238.513 216.002 238.855 215.03 238.985 214.018C239.116 213.006 239.031 211.978 238.738 211.002C238.444 210.026 237.948 209.124 237.283 208.357C236.617 207.589 235.797 206.973 234.878 206.55C233.959 206.127 232.961 205.907 231.95 205.903Z" fill="#2197F7"/>
<path d="M117.269 142.772C116.653 142.774 116.041 142.856 115.447 143.017C116.965 143.423 118.308 144.325 119.266 145.581C120.225 146.838 120.744 148.38 120.744 149.966C120.744 151.552 120.225 153.093 119.266 154.35C118.308 155.607 116.965 156.508 115.447 156.914C116.424 157.172 117.445 157.216 118.441 157.045C119.437 156.874 120.385 156.49 121.223 155.92C122.061 155.35 122.769 154.606 123.3 153.738C123.831 152.87 124.174 151.898 124.304 150.887C124.434 149.875 124.35 148.847 124.056 147.871C123.763 146.895 123.267 145.993 122.601 145.226C121.936 144.458 121.116 143.842 120.197 143.419C119.277 142.996 118.279 142.775 117.269 142.772Z" fill="#DDF7FF"/>
<path d="M155.5 142.772C154.885 142.774 154.272 142.856 153.678 143.017C155.196 143.423 156.539 144.325 157.498 145.581C158.456 146.838 158.976 148.38 158.976 149.966C158.976 151.552 158.456 153.093 157.498 154.35C156.539 155.607 155.196 156.508 153.678 156.914C154.655 157.172 155.676 157.216 156.672 157.045C157.668 156.874 158.617 156.49 159.454 155.92C160.292 155.35 161 154.606 161.532 153.738C162.063 152.87 162.405 151.898 162.535 150.887C162.666 149.875 162.581 148.847 162.288 147.871C161.994 146.895 161.498 145.993 160.832 145.226C160.167 144.458 159.347 143.842 158.428 143.419C157.508 142.996 156.51 142.775 155.5 142.772Z" fill="#DDF7FF"/>
<path d="M193.731 142.772C193.116 142.774 192.503 142.856 191.909 143.017C193.428 143.423 194.771 144.325 195.729 145.581C196.687 146.838 197.207 148.38 197.207 149.966C197.207 151.552 196.687 153.093 195.729 154.35C194.771 155.607 193.428 156.508 191.909 156.914C192.887 157.172 193.907 157.216 194.903 157.045C195.899 156.874 196.848 156.49 197.686 155.92C198.523 155.35 199.232 154.606 199.763 153.738C200.294 152.87 200.636 151.898 200.766 150.887C200.897 149.875 200.812 148.847 200.519 147.871C200.225 146.895 199.729 145.993 199.064 145.226C198.398 144.458 197.578 143.842 196.659 143.419C195.74 142.996 194.742 142.775 193.731 142.772Z" fill="#DDF7FF"/>
<path d="M270.181 142.772C269.566 142.774 268.953 142.856 268.359 143.017C269.878 143.423 271.221 144.325 272.179 145.581C273.137 146.838 273.657 148.38 273.657 149.966C273.657 151.552 273.137 153.093 272.179 154.35C271.221 155.607 269.878 156.508 268.359 156.914C269.337 157.172 270.357 157.216 271.353 157.045C272.349 156.874 273.298 156.49 274.136 155.92C274.973 155.35 275.681 154.606 276.213 153.738C276.744 152.87 277.086 151.898 277.216 150.887C277.347 149.875 277.262 148.847 276.969 147.871C276.675 146.895 276.179 145.993 275.514 145.226C274.848 144.458 274.028 143.842 273.109 143.419C272.19 142.996 271.192 142.775 270.181 142.772Z" fill="#DDF7FF"/>
<path d="M117.269 174.331C116.653 174.333 116.041 174.415 115.447 174.577C116.965 174.982 118.308 175.884 119.266 177.141C120.225 178.397 120.744 179.939 120.744 181.525C120.744 183.111 120.225 184.653 119.266 185.909C118.308 187.166 116.965 188.068 115.447 188.474C116.424 188.731 117.445 188.776 118.441 188.604C119.437 188.433 120.385 188.049 121.223 187.479C122.061 186.909 122.769 186.165 123.3 185.298C123.831 184.43 124.174 183.458 124.304 182.446C124.434 181.435 124.35 180.407 124.056 179.43C123.763 178.454 123.267 177.552 122.601 176.785C121.936 176.017 121.116 175.401 120.197 174.978C119.277 174.555 118.279 174.335 117.269 174.331Z" fill="#DDF7FF"/>
<path d="M155.5 174.331C154.885 174.333 154.272 174.415 153.678 174.577C155.196 174.982 156.539 175.884 157.498 177.141C158.456 178.397 158.976 179.939 158.976 181.525C158.976 183.111 158.456 184.653 157.498 185.909C156.539 187.166 155.196 188.068 153.678 188.474C154.655 188.731 155.676 188.776 156.672 188.604C157.668 188.433 158.617 188.049 159.454 187.479C160.292 186.909 161 186.165 161.532 185.298C162.063 184.43 162.405 183.458 162.535 182.446C162.666 181.435 162.581 180.407 162.288 179.43C161.994 178.454 161.498 177.552 160.832 176.785C160.167 176.017 159.347 175.401 158.428 174.978C157.508 174.555 156.51 174.335 155.5 174.331Z" fill="#DDF7FF"/>
<path d="M193.731 174.331C193.116 174.333 192.503 174.415 191.909 174.577C193.428 174.982 194.771 175.884 195.729 177.141C196.687 178.397 197.207 179.939 197.207 181.525C197.207 183.111 196.687 184.653 195.729 185.909C194.771 187.166 193.428 188.068 191.909 188.474C192.887 188.731 193.907 188.776 194.903 188.604C195.899 188.433 196.848 188.049 197.686 187.479C198.523 186.909 199.232 186.165 199.763 185.298C200.294 184.43 200.636 183.458 200.766 182.446C200.897 181.435 200.812 180.407 200.519 179.43C200.225 178.454 199.729 177.552 199.064 176.785C198.398 176.017 197.578 175.401 196.659 174.978C195.74 174.555 194.742 174.335 193.731 174.331Z" fill="#DDF7FF"/>
<path d="M270.181 174.331C269.566 174.333 268.953 174.415 268.359 174.577C269.878 174.982 271.221 175.884 272.179 177.141C273.137 178.397 273.657 179.939 273.657 181.525C273.657 183.111 273.137 184.653 272.179 185.909C271.221 187.166 269.878 188.068 268.359 188.474C269.337 188.731 270.357 188.776 271.353 188.604C272.349 188.433 273.298 188.049 274.136 187.479C274.973 186.909 275.681 186.165 276.213 185.298C276.744 184.43 277.086 183.458 277.216 182.446C277.347 181.435 277.262 180.407 276.969 179.43C276.675 178.454 276.179 177.552 275.514 176.785C274.848 176.017 274.028 175.401 273.109 174.978C272.19 174.555 271.192 174.335 270.181 174.331Z" fill="#DDF7FF"/>
<path d="M117.269 205.903C116.653 205.905 116.041 205.987 115.447 206.148C116.965 206.554 118.308 207.456 119.266 208.712C120.225 209.969 120.744 211.511 120.744 213.097C120.744 214.683 120.225 216.224 119.266 217.481C118.308 218.738 116.965 219.64 115.447 220.045C116.424 220.303 117.445 220.348 118.441 220.176C119.437 220.005 120.385 219.621 121.223 219.051C122.061 218.481 122.769 217.737 123.3 216.869C123.831 216.002 124.174 215.03 124.304 214.018C124.434 213.006 124.35 211.978 124.056 211.002C123.763 210.026 123.267 209.124 122.601 208.357C121.936 207.589 121.116 206.973 120.197 206.55C119.277 206.127 118.279 205.907 117.269 205.903Z" fill="#DDF7FF"/>
<path d="M40.8188 205.903C40.2035 205.905 39.5909 205.987 38.9966 206.148C40.5152 206.554 41.8583 207.456 42.8165 208.712C43.7748 209.969 44.2944 211.511 44.2944 213.097C44.2944 214.683 43.7748 216.224 42.8165 217.481C41.8583 218.738 40.5152 219.64 38.9966 220.045C39.9742 220.303 40.995 220.348 41.991 220.176C42.987 220.005 43.9354 219.621 44.7733 219.051C45.6111 218.481 46.3192 217.737 46.8504 216.869C47.3815 216.002 47.7237 215.03 47.854 214.018C47.9844 213.006 47.8999 211.978 47.6064 211.002C47.3128 210.026 46.8168 209.124 46.1513 208.357C45.4858 207.589 44.6661 206.973 43.7467 206.55C42.8273 206.127 41.8292 205.907 40.8188 205.903Z" fill="#D84936"/>
<path d="M117.269 237.462C116.653 237.464 116.041 237.546 115.447 237.708C116.965 238.113 118.308 239.015 119.266 240.272C120.225 241.529 120.744 243.07 120.744 244.656C120.744 246.242 120.225 247.784 119.266 249.041C118.308 250.297 116.965 251.199 115.447 251.605C116.424 251.862 117.445 251.907 118.441 251.735C119.437 251.564 120.385 251.18 121.223 250.61C122.061 250.04 122.769 249.296 123.3 248.429C123.831 247.561 124.174 246.589 124.304 245.577C124.434 244.566 124.35 243.538 124.056 242.562C123.763 241.585 123.267 240.684 122.601 239.916C121.936 239.148 121.116 238.533 120.197 238.11C119.277 237.686 118.279 237.466 117.269 237.462Z" fill="#DDF7FF"/>
<path d="M79.0498 237.462C78.4344 237.464 77.8219 237.546 77.2275 237.708C78.7462 238.113 80.0892 239.015 81.0475 240.272C82.0057 241.529 82.5253 243.07 82.5253 244.656C82.5253 246.242 82.0057 247.784 81.0475 249.041C80.0892 250.297 78.7462 251.199 77.2275 251.605C78.2052 251.862 79.2259 251.907 80.2219 251.735C81.2179 251.564 82.1664 251.18 83.0042 250.61C83.8421 250.04 84.5501 249.296 85.0813 248.429C85.6125 247.561 85.9546 246.589 86.085 245.577C86.2153 244.566 86.1309 243.538 85.8373 242.562C85.5437 241.585 85.0477 240.684 84.3822 239.916C83.7168 239.148 82.8971 238.533 81.9777 238.11C81.0582 237.686 80.0602 237.466 79.0498 237.462Z" fill="#DDF7FF"/>
<path d="M79.0498 174.331C78.4344 174.333 77.8219 174.415 77.2275 174.577C78.7462 174.982 80.0892 175.884 81.0475 177.141C82.0057 178.397 82.5253 179.939 82.5253 181.525C82.5253 183.111 82.0057 184.653 81.0475 185.909C80.0892 187.166 78.7462 188.068 77.2275 188.474C78.2052 188.731 79.2259 188.776 80.2219 188.604C81.2179 188.433 82.1664 188.049 83.0042 187.479C83.8421 186.909 84.5501 186.165 85.0813 185.298C85.6125 184.43 85.9546 183.458 86.085 182.446C86.2153 181.435 86.1309 180.407 85.8373 179.43C85.5437 178.454 85.0477 177.552 84.3822 176.785C83.7168 176.017 82.8971 175.401 81.9777 174.978C81.0582 174.555 80.0602 174.335 79.0498 174.331Z" fill="#DDF7FF"/>
<path d="M79.0498 142.772C78.4344 142.774 77.8219 142.856 77.2275 143.017C78.7462 143.423 80.0892 144.325 81.0475 145.581C82.0057 146.838 82.5253 148.38 82.5253 149.966C82.5253 151.552 82.0057 153.093 81.0475 154.35C80.0892 155.607 78.7462 156.508 77.2275 156.914C78.2052 157.172 79.2259 157.216 80.2219 157.045C81.2179 156.874 82.1664 156.49 83.0042 155.92C83.8421 155.35 84.5501 154.606 85.0813 153.738C85.6125 152.87 85.9546 151.898 86.085 150.887C86.2153 149.875 86.1309 148.847 85.8373 147.871C85.5437 146.895 85.0477 145.993 84.3822 145.226C83.7168 144.458 82.8971 143.842 81.9777 143.419C81.0582 142.996 80.0602 142.775 79.0498 142.772Z" fill="#DDF7FF"/>
<path d="M40.8188 237.462C40.2035 237.464 39.5909 237.546 38.9966 237.708C40.5152 238.113 41.8583 239.015 42.8165 240.272C43.7748 241.529 44.2944 243.07 44.2944 244.656C44.2944 246.242 43.7748 247.784 42.8165 249.041C41.8583 250.297 40.5152 251.199 38.9966 251.605C39.9742 251.862 40.995 251.907 41.991 251.735C42.987 251.564 43.9354 251.18 44.7733 250.61C45.6111 250.04 46.3192 249.296 46.8504 248.429C47.3815 247.561 47.7237 246.589 47.854 245.577C47.9844 244.566 47.8999 243.538 47.6064 242.562C47.3128 241.585 46.8168 240.684 46.1513 239.916C45.4858 239.148 44.6661 238.533 43.7467 238.11C42.8273 237.686 41.8292 237.466 40.8188 237.462Z" fill="#D84936"/>
<path d="M40.8188 174.331C40.2035 174.333 39.5909 174.415 38.9966 174.577C40.5152 174.982 41.8583 175.884 42.8165 177.141C43.7748 178.397 44.2944 179.939 44.2944 181.525C44.2944 183.111 43.7748 184.653 42.8165 185.909C41.8583 187.166 40.5152 188.068 38.9966 188.474C39.9742 188.731 40.995 188.776 41.991 188.604C42.987 188.433 43.9354 188.049 44.7733 187.479C45.6111 186.909 46.3192 186.165 46.8504 185.298C47.3815 184.43 47.7237 183.458 47.854 182.446C47.9844 181.435 47.8999 180.407 47.6064 179.43C47.3128 178.454 46.8168 177.552 46.1513 176.785C45.4858 176.017 44.6661 175.401 43.7467 174.978C42.8273 174.555 41.8292 174.335 40.8188 174.331Z" fill="#D84936"/>
<path d="M40.8188 142.772C40.2035 142.774 39.5909 142.856 38.9966 143.017C40.5152 143.423 41.8583 144.325 42.8165 145.581C43.7748 146.838 44.2944 148.38 44.2944 149.966C44.2944 151.552 43.7748 153.093 42.8165 154.35C41.8583 155.607 40.5152 156.508 38.9966 156.914C39.9742 157.172 40.995 157.216 41.991 157.045C42.987 156.874 43.9354 156.49 44.7733 155.92C45.6111 155.35 46.3192 154.606 46.8504 153.738C47.3815 152.87 47.7237 151.898 47.854 150.887C47.9844 149.875 47.8999 148.847 47.6064 147.871C47.3128 146.895 46.8168 145.993 46.1513 145.226C45.4858 144.458 44.6661 143.842 43.7467 143.419C42.8273 142.996 41.8292 142.775 40.8188 142.772Z" fill="#D84936"/>
<path d="M155.5 237.462C154.885 237.464 154.272 237.546 153.678 237.708C155.196 238.113 156.539 239.015 157.498 240.272C158.456 241.529 158.976 243.07 158.976 244.656C158.976 246.242 158.456 247.784 157.498 249.041C156.539 250.297 155.196 251.199 153.678 251.605C154.655 251.862 155.676 251.907 156.672 251.735C157.668 251.564 158.617 251.18 159.454 250.61C160.292 250.04 161 249.296 161.532 248.429C162.063 247.561 162.405 246.589 162.535 245.577C162.666 244.566 162.581 243.538 162.288 242.562C161.994 241.585 161.498 240.684 160.832 239.916C160.167 239.148 159.347 238.533 158.428 238.11C157.508 237.686 156.51 237.466 155.5 237.462Z" fill="#DDF7FF"/>
<path d="M193.731 237.462C193.116 237.464 192.503 237.546 191.909 237.708C193.428 238.113 194.771 239.015 195.729 240.272C196.687 241.529 197.207 243.07 197.207 244.656C197.207 246.242 196.687 247.784 195.729 249.041C194.771 250.297 193.428 251.199 191.909 251.605C192.887 251.862 193.907 251.907 194.903 251.735C195.899 251.564 196.848 251.18 197.686 250.61C198.523 250.04 199.232 249.296 199.763 248.429C200.294 247.561 200.636 246.589 200.766 245.577C200.897 244.566 200.812 243.538 200.519 242.562C200.225 241.585 199.729 240.684 199.064 239.916C198.398 239.148 197.578 238.533 196.659 238.11C195.74 237.686 194.742 237.466 193.731 237.462Z" fill="#DDF7FF"/>
<path d="M155.5 205.903C154.885 205.905 154.272 205.987 153.678 206.148C155.196 206.554 156.539 207.456 157.498 208.712C158.456 209.969 158.976 211.511 158.976 213.097C158.976 214.683 158.456 216.224 157.498 217.481C156.539 218.738 155.196 219.64 153.678 220.045C154.655 220.303 155.676 220.348 156.672 220.176C157.668 220.005 158.617 219.621 159.454 219.051C160.292 218.481 161 217.737 161.532 216.869C162.063 216.002 162.405 215.03 162.535 214.018C162.666 213.006 162.581 211.978 162.288 211.002C161.994 210.026 161.498 209.124 160.832 208.357C160.167 207.589 159.347 206.973 158.428 206.55C157.508 206.127 156.51 205.907 155.5 205.903Z" fill="#DDF7FF"/>
<path d="M193.731 205.903C193.116 205.905 192.503 205.987 191.909 206.148C193.428 206.554 194.771 207.456 195.729 208.712C196.687 209.969 197.207 211.511 197.207 213.097C197.207 214.683 196.687 216.224 195.729 217.481C194.771 218.738 193.428 219.64 191.909 220.045C192.887 220.303 193.907 220.348 194.903 220.176C195.899 220.005 196.848 219.621 197.686 219.051C198.523 218.481 199.232 217.737 199.763 216.869C200.294 216.002 200.636 215.03 200.766 214.018C200.897 213.006 200.812 211.978 200.519 211.002C200.225 210.026 199.729 209.124 199.064 208.357C198.398 207.589 197.578 206.973 196.659 206.55C195.74 206.127 194.742 205.907 193.731 205.903Z" fill="#DDF7FF"/>
<path d="M270.181 205.903C269.566 205.905 268.953 205.987 268.359 206.148C269.878 206.554 271.221 207.456 272.179 208.712C273.137 209.969 273.657 211.511 273.657 213.097C273.657 214.683 273.137 216.224 272.179 217.481C271.221 218.738 269.878 219.64 268.359 220.045C269.337 220.303 270.357 220.348 271.353 220.176C272.349 220.005 273.298 219.621 274.136 219.051C274.973 218.481 275.681 217.737 276.213 216.869C276.744 216.002 277.086 215.03 277.216 214.018C277.347 213.006 277.262 211.978 276.969 211.002C276.675 210.026 276.179 209.124 275.514 208.357C274.848 207.589 274.028 206.973 273.109 206.55C272.19 206.127 271.192 205.907 270.181 205.903Z" fill="#DDF7FF"/>
<path d="M286.703 52.1289H280.021V42.9297C280.021 42.1164 279.702 41.3365 279.132 40.7614C278.562 40.1863 277.79 39.8633 276.984 39.8633C276.179 39.8633 275.406 40.1863 274.837 40.7614C274.267 41.3365 273.947 42.1164 273.947 42.9297V52.1289H231.428V42.9297C231.428 42.1164 231.108 41.3365 230.538 40.7614C229.969 40.1863 229.196 39.8633 228.391 39.8633C227.585 39.8633 226.813 40.1863 226.243 40.7614C225.674 41.3365 225.354 42.1164 225.354 42.9297V52.1289H182.834V42.9297C182.834 42.1164 182.514 41.3365 181.944 40.7614C181.375 40.1863 180.602 39.8633 179.797 39.8633C178.991 39.8633 178.219 40.1863 177.649 40.7614C177.08 41.3365 176.76 42.1164 176.76 42.9297V52.1289H134.24V42.9297C134.24 42.1164 133.92 41.3365 133.351 40.7614C132.781 40.1863 132.009 39.8633 131.203 39.8633C130.398 39.8633 129.625 40.1863 129.056 40.7614C128.486 41.3365 128.166 42.1164 128.166 42.9297V52.1289H85.6465V42.9297C85.6465 42.1164 85.3265 41.3365 84.7569 40.7614C84.1874 40.1863 83.4149 39.8633 82.6094 39.8633C81.8039 39.8633 81.0314 40.1863 80.4618 40.7614C79.8922 41.3365 79.5723 42.1164 79.5723 42.9297V52.1289H37.0527V42.9297C37.0527 42.1164 36.7328 41.3365 36.1632 40.7614C35.5936 40.1863 34.8211 39.8633 34.0156 39.8633C33.2101 39.8633 32.4376 40.1863 31.8681 40.7614C31.2985 41.3365 30.9785 42.1164 30.9785 42.9297V52.1289H24.2969C20.2704 52.1322 16.4098 53.7485 13.5626 56.6231C10.7155 59.4978 9.11455 63.3956 9.11133 67.4609V258.805C9.11455 262.87 10.7155 266.768 13.5626 269.642C16.4098 272.517 20.2704 274.133 24.2969 274.137H286.703C290.73 274.133 294.59 272.517 297.437 269.642C300.285 266.768 301.885 262.87 301.889 258.805V67.4609C301.885 63.3956 300.285 59.4978 297.437 56.6231C294.59 53.7485 290.73 52.1322 286.703 52.1289ZM295.814 258.805C295.811 261.243 294.85 263.581 293.142 265.306C291.434 267.03 289.119 268.001 286.703 268.004H24.2969C21.8814 268.001 19.5658 267.03 17.8577 265.306C16.1497 263.581 15.1888 261.243 15.1855 258.805V67.4609C15.1888 65.0222 16.1497 62.6842 17.8577 60.9597C19.5658 59.2352 21.8814 58.265 24.2969 58.2617H30.9785V67.4609C30.9785 68.2742 31.2985 69.0542 31.8681 69.6292C32.4376 70.2043 33.2101 70.5273 34.0156 70.5273C34.8211 70.5273 35.5936 70.2043 36.1632 69.6292C36.7328 69.0542 37.0527 68.2742 37.0527 67.4609V58.2617H79.5723V67.4609C79.5723 68.2742 79.8922 69.0542 80.4618 69.6292C81.0314 70.2043 81.8039 70.5273 82.6094 70.5273C83.4149 70.5273 84.1874 70.2043 84.7569 69.6292C85.3265 69.0542 85.6465 68.2742 85.6465 67.4609V58.2617H128.166V67.4609C128.166 68.2742 128.486 69.0542 129.056 69.6292C129.625 70.2043 130.398 70.5273 131.203 70.5273C132.009 70.5273 132.781 70.2043 133.351 69.6292C133.92 69.0542 134.24 68.2742 134.24 67.4609V58.2617H176.76V67.4609C176.76 68.2742 177.08 69.0542 177.649 69.6292C178.219 70.2043 178.991 70.5273 179.797 70.5273C180.602 70.5273 181.375 70.2043 181.944 69.6292C182.514 69.0542 182.834 68.2742 182.834 67.4609V58.2617H225.354V67.4609C225.354 68.2742 225.674 69.0542 226.243 69.6292C226.813 70.2043 227.585 70.5273 228.391 70.5273C229.196 70.5273 229.969 70.2043 230.538 69.6292C231.108 69.0542 231.428 68.2742 231.428 67.4609V58.2617H273.947V67.4609C273.947 68.2742 274.267 69.0542 274.837 69.6292C275.406 70.2043 276.179 70.5273 276.984 70.5273C277.79 70.5273 278.562 70.2043 279.132 69.6292C279.702 69.0542 280.021 68.2742 280.021 67.4609V58.2617H286.703C289.119 58.265 291.434 59.2352 293.142 60.9597C294.85 62.6842 295.811 65.0222 295.814 67.4609V258.805Z" fill="#263238"/>
<path d="M36.4453 87.2944H85.0391C85.8446 87.2944 86.6171 86.9714 87.1866 86.3963C87.7562 85.8212 88.0762 85.0413 88.0762 84.228C88.0762 83.4148 87.7562 82.6348 87.1866 82.0597C86.6171 81.4847 85.8446 81.1616 85.0391 81.1616H36.4453C35.6398 81.1616 34.8673 81.4847 34.2978 82.0597C33.7282 82.6348 33.4082 83.4148 33.4082 84.228C33.4082 85.0413 33.7282 85.8212 34.2978 86.3963C34.8673 86.9714 35.6398 87.2944 36.4453 87.2944Z" fill="#263238"/>
<path d="M109.336 87.2944H274.555C275.36 87.2944 276.133 86.9714 276.702 86.3963C277.272 85.8212 277.592 85.0413 277.592 84.228C277.592 83.4148 277.272 82.6348 276.702 82.0597C276.133 81.4847 275.36 81.1616 274.555 81.1616H109.336C108.53 81.1616 107.758 81.4847 107.188 82.0597C106.619 82.6348 106.299 83.4148 106.299 84.228C106.299 85.0413 106.619 85.8212 107.188 86.3963C107.758 86.9714 108.53 87.2944 109.336 87.2944Z" fill="#263238"/>
<path d="M117.269 105.693C114.777 105.693 112.341 106.439 110.269 107.837C108.197 109.236 106.582 111.223 105.629 113.548C104.676 115.873 104.427 118.431 104.914 120.898C105.401 123.366 106.602 125.632 108.365 127.411C110.128 129.189 112.374 130.399 114.819 130.889C117.263 131.378 119.797 131.125 122.098 130.16C124.4 129.195 126.367 127.563 127.75 125.47C129.132 123.377 129.869 120.916 129.867 118.4C129.86 115.03 128.531 111.8 126.169 109.418C123.808 107.036 120.607 105.696 117.269 105.693ZM117.269 124.987C115.979 124.987 114.717 124.6 113.644 123.877C112.572 123.153 111.735 122.124 111.242 120.921C110.748 119.717 110.619 118.393 110.87 117.115C111.122 115.837 111.744 114.664 112.656 113.743C113.568 112.821 114.731 112.194 115.996 111.94C117.262 111.686 118.573 111.816 119.765 112.315C120.957 112.813 121.976 113.658 122.693 114.741C123.41 115.824 123.793 117.097 123.793 118.4C123.793 120.147 123.105 121.822 121.882 123.058C120.658 124.293 118.999 124.987 117.269 124.987Z" fill="#263238"/>
<path d="M155.5 105.693C153.008 105.693 150.573 106.439 148.501 107.836C146.429 109.234 144.815 111.221 143.861 113.545C142.908 115.869 142.658 118.426 143.144 120.894C143.63 123.361 144.83 125.627 146.592 127.406C148.354 129.185 150.599 130.397 153.042 130.887C155.486 131.378 158.019 131.126 160.321 130.164C162.623 129.201 164.591 127.571 165.975 125.479C167.359 123.387 168.098 120.928 168.098 118.412C168.095 115.04 166.766 111.807 164.405 109.422C162.043 107.037 158.84 105.696 155.5 105.693ZM155.5 124.987C154.21 124.987 152.948 124.6 151.876 123.877C150.803 123.153 149.967 122.124 149.473 120.921C148.979 119.717 148.85 118.393 149.102 117.115C149.353 115.837 149.975 114.664 150.887 113.743C151.799 112.821 152.962 112.194 154.227 111.94C155.493 111.686 156.804 111.816 157.997 112.315C159.189 112.813 160.207 113.658 160.924 114.741C161.641 115.824 162.024 117.097 162.024 118.4C162.024 120.147 161.336 121.822 160.113 123.058C158.89 124.293 157.23 124.987 155.5 124.987Z" fill="#263238"/>
<path d="M193.731 105.693C191.24 105.693 188.804 106.439 186.732 107.836C184.66 109.234 183.046 111.221 182.092 113.545C181.139 115.869 180.889 118.426 181.375 120.894C181.861 123.361 183.061 125.627 184.823 127.406C186.585 129.185 188.83 130.397 191.274 130.887C193.717 131.378 196.25 131.126 198.552 130.164C200.854 129.201 202.822 127.571 204.206 125.479C205.59 123.387 206.329 120.928 206.329 118.412C206.326 115.04 204.998 111.807 202.636 109.422C200.274 107.037 197.071 105.696 193.731 105.693ZM193.731 124.987C192.441 124.987 191.18 124.6 190.107 123.877C189.034 123.153 188.198 122.124 187.704 120.921C187.21 119.717 187.081 118.393 187.333 117.115C187.585 115.837 188.206 114.664 189.118 113.743C190.031 112.821 191.193 112.194 192.459 111.94C193.724 111.686 195.036 111.816 196.228 112.315C197.42 112.813 198.439 113.658 199.156 114.741C199.872 115.824 200.255 117.097 200.255 118.4C200.255 120.147 199.568 121.822 198.344 123.058C197.121 124.293 195.461 124.987 193.731 124.987Z" fill="#263238"/>
<path d="M231.95 105.693C229.458 105.693 227.022 106.439 224.95 107.837C222.878 109.236 221.263 111.223 220.31 113.548C219.357 115.873 219.108 118.431 219.595 120.898C220.082 123.366 221.283 125.632 223.046 127.411C224.81 129.189 227.055 130.399 229.5 130.889C231.945 131.378 234.478 131.125 236.78 130.16C239.081 129.195 241.048 127.563 242.431 125.47C243.814 123.377 244.551 120.916 244.548 118.4C244.542 115.03 243.212 111.8 240.85 109.418C238.489 107.036 235.288 105.696 231.95 105.693ZM231.95 124.987C230.66 124.987 229.399 124.6 228.326 123.877C227.253 123.153 226.417 122.124 225.923 120.921C225.429 119.717 225.3 118.393 225.552 117.115C225.804 115.837 226.425 114.664 227.337 113.743C228.25 112.821 229.412 112.194 230.678 111.94C231.943 111.686 233.255 111.816 234.447 112.315C235.639 112.813 236.658 113.658 237.374 114.741C238.091 115.824 238.474 117.097 238.474 118.4C238.474 120.147 237.787 121.822 236.563 123.058C235.34 124.293 233.68 124.987 231.95 124.987Z" fill="#263238"/>
<path d="M270.181 105.693C267.69 105.693 265.254 106.439 263.182 107.836C261.11 109.234 259.496 111.221 258.542 113.545C257.589 115.869 257.339 118.426 257.825 120.894C258.311 123.361 259.511 125.627 261.273 127.406C263.035 129.185 265.28 130.397 267.723 130.887C270.167 131.378 272.7 131.126 275.002 130.164C277.304 129.201 279.272 127.571 280.656 125.479C282.04 123.387 282.779 120.928 282.779 118.412C282.776 115.04 281.448 111.807 279.086 109.422C276.724 107.037 273.521 105.696 270.181 105.693ZM270.181 124.987C268.891 124.987 267.63 124.6 266.557 123.877C265.484 123.153 264.648 122.124 264.154 120.921C263.66 119.717 263.531 118.393 263.783 117.115C264.035 115.837 264.656 114.664 265.568 113.743C266.481 112.821 267.643 112.194 268.908 111.94C270.174 111.686 271.486 111.816 272.678 112.315C273.87 112.813 274.889 113.658 275.605 114.741C276.322 115.824 276.705 117.097 276.705 118.4C276.705 120.147 276.018 121.822 274.794 123.058C273.571 124.293 271.911 124.987 270.181 124.987Z" fill="#263238"/>
<path d="M40.8188 137.252C38.3287 137.26 35.8967 138.012 33.8297 139.414C31.7628 140.816 30.1538 142.805 29.2059 145.13C28.2579 147.455 28.0137 150.011 28.5039 152.476C28.9941 154.941 30.1968 157.204 31.9601 158.979C33.7233 160.754 35.9681 161.962 38.4109 162.45C40.8537 162.937 43.3848 162.683 45.6847 161.72C47.9845 160.756 49.9499 159.126 51.3326 157.035C52.7152 154.944 53.4532 152.486 53.4532 149.972C53.4516 148.299 53.1234 146.643 52.4875 145.098C51.8515 143.553 50.9203 142.15 49.7469 140.968C48.5735 139.787 47.1811 138.851 45.6491 138.213C44.1172 137.576 42.4758 137.249 40.8188 137.252ZM40.8188 156.546C39.5296 156.539 38.2714 156.146 37.2032 155.418C36.1349 154.689 35.3044 153.657 34.8166 152.452C34.3288 151.247 34.2055 149.923 34.4623 148.648C34.7191 147.372 35.3445 146.202 36.2595 145.285C37.1745 144.368 38.3381 143.745 39.6034 143.496C40.8686 143.246 42.1788 143.38 43.3685 143.882C44.5583 144.383 45.5741 145.229 46.2879 146.313C47.0017 147.397 47.3814 148.67 47.379 149.972C47.3774 150.839 47.2063 151.697 46.8754 152.497C46.5446 153.297 46.0605 154.024 45.451 154.634C44.8416 155.245 44.1186 155.729 43.3237 156.057C42.5288 156.385 41.6776 156.551 40.8188 156.546Z" fill="#263238"/>
<path d="M79.0498 137.252C76.5582 137.252 74.1225 137.998 72.0508 139.396C69.9791 140.794 68.3644 142.78 67.4109 145.104C66.4574 147.429 66.2079 149.986 66.694 152.453C67.1801 154.921 68.3799 157.187 70.1418 158.966C71.9036 160.745 74.1483 161.956 76.5921 162.447C79.0359 162.938 81.5689 162.686 83.8709 161.723C86.1728 160.76 88.1404 159.13 89.5246 157.038C90.9089 154.947 91.6478 152.488 91.6478 149.972C91.6446 146.599 90.3162 143.366 87.9544 140.981C85.5925 138.597 82.39 137.256 79.0498 137.252ZM79.0498 156.546C77.7596 156.546 76.4983 156.16 75.4255 155.436C74.3526 154.712 73.5165 153.684 73.0227 152.48C72.529 151.277 72.3998 149.952 72.6515 148.675C72.9032 147.397 73.5245 146.223 74.4369 145.302C75.3492 144.381 76.5116 143.754 77.7771 143.5C79.0426 143.245 80.3543 143.376 81.5464 143.874C82.7384 144.373 83.7573 145.217 84.4741 146.3C85.1909 147.383 85.5736 148.657 85.5736 149.96C85.5736 151.707 84.8862 153.382 83.6628 154.617C82.4394 155.852 80.78 156.546 79.0498 156.546Z" fill="#263238"/>
<path d="M117.269 137.252C114.777 137.252 112.342 137.998 110.27 139.396C108.198 140.794 106.583 142.78 105.63 145.104C104.676 147.429 104.427 149.986 104.913 152.453C105.399 154.921 106.599 157.187 108.361 158.966C110.123 160.745 112.367 161.956 114.811 162.447C117.255 162.938 119.788 162.686 122.09 161.723C124.392 160.76 126.359 159.13 127.744 157.038C129.128 154.947 129.867 152.488 129.867 149.972C129.864 146.599 128.535 143.366 126.173 140.981C123.811 138.597 120.609 137.256 117.269 137.252ZM117.269 156.546C115.979 156.546 114.717 156.16 113.644 155.436C112.572 154.712 111.735 153.684 111.242 152.48C110.748 151.277 110.619 149.952 110.87 148.675C111.122 147.397 111.744 146.223 112.656 145.302C113.568 144.381 114.731 143.754 115.996 143.5C117.262 143.245 118.573 143.376 119.765 143.874C120.957 144.373 121.976 145.217 122.693 146.3C123.41 147.383 123.793 148.657 123.793 149.96C123.793 151.707 123.105 153.382 121.882 154.617C120.658 155.852 118.999 156.546 117.269 156.546Z" fill="#263238"/>
<path d="M155.5 137.252C153.008 137.252 150.573 137.998 148.501 139.396C146.429 140.794 144.815 142.78 143.861 145.104C142.908 147.429 142.658 149.986 143.144 152.453C143.63 154.921 144.83 157.187 146.592 158.966C148.354 160.745 150.599 161.956 153.042 162.447C155.486 162.938 158.019 162.686 160.321 161.723C162.623 160.76 164.591 159.13 165.975 157.038C167.359 154.947 168.098 152.488 168.098 149.972C168.095 146.599 166.766 143.366 164.405 140.981C162.043 138.597 158.84 137.256 155.5 137.252ZM155.5 156.546C154.21 156.546 152.948 156.16 151.876 155.436C150.803 154.712 149.967 153.684 149.473 152.48C148.979 151.277 148.85 149.952 149.102 148.675C149.353 147.397 149.975 146.223 150.887 145.302C151.799 144.381 152.962 143.754 154.227 143.5C155.493 143.245 156.804 143.376 157.997 143.874C159.189 144.373 160.207 145.217 160.924 146.3C161.641 147.383 162.024 148.657 162.024 149.96C162.024 151.707 161.336 153.382 160.113 154.617C158.89 155.852 157.23 156.546 155.5 156.546Z" fill="#263238"/>
<path d="M193.731 137.252C191.24 137.252 188.804 137.998 186.732 139.396C184.66 140.794 183.046 142.78 182.092 145.104C181.139 147.429 180.889 149.986 181.375 152.453C181.861 154.921 183.061 157.187 184.823 158.966C186.585 160.745 188.83 161.956 191.274 162.447C193.717 162.938 196.25 162.686 198.552 161.723C200.854 160.76 202.822 159.13 204.206 157.038C205.59 154.947 206.329 152.488 206.329 149.972C206.326 146.599 204.998 143.366 202.636 140.981C200.274 138.597 197.071 137.256 193.731 137.252ZM193.731 156.546C192.441 156.546 191.18 156.16 190.107 155.436C189.034 154.712 188.198 153.684 187.704 152.48C187.21 151.277 187.081 149.952 187.333 148.675C187.585 147.397 188.206 146.223 189.118 145.302C190.031 144.381 191.193 143.754 192.459 143.5C193.724 143.245 195.036 143.376 196.228 143.874C197.42 144.373 198.439 145.217 199.156 146.3C199.872 147.383 200.255 148.657 200.255 149.96C200.255 151.707 199.568 153.382 198.344 154.617C197.121 155.852 195.461 156.546 193.731 156.546Z" fill="#263238"/>
<path d="M231.95 137.252C229.459 137.252 227.023 137.998 224.951 139.396C222.879 140.794 221.265 142.78 220.311 145.104C219.358 147.429 219.108 149.986 219.594 152.453C220.08 154.921 221.28 157.187 223.042 158.966C224.804 160.745 227.049 161.956 229.492 162.447C231.936 162.938 234.469 162.686 236.771 161.723C239.073 160.76 241.041 159.13 242.425 157.038C243.809 154.947 244.548 152.488 244.548 149.972C244.545 146.599 243.217 143.366 240.855 140.981C238.493 138.597 235.29 137.256 231.95 137.252ZM231.95 156.546C230.66 156.546 229.399 156.16 228.326 155.436C227.253 154.712 226.417 153.684 225.923 152.48C225.429 151.277 225.3 149.952 225.552 148.675C225.804 147.397 226.425 146.223 227.337 145.302C228.25 144.381 229.412 143.754 230.678 143.5C231.943 143.245 233.255 143.376 234.447 143.874C235.639 144.373 236.658 145.217 237.374 146.3C238.091 147.383 238.474 148.657 238.474 149.96C238.474 151.707 237.787 153.382 236.563 154.617C235.34 155.852 233.68 156.546 231.95 156.546Z" fill="#263238"/>
<path d="M270.181 137.252C267.69 137.252 265.254 137.998 263.182 139.396C261.11 140.794 259.496 142.78 258.542 145.104C257.589 147.429 257.339 149.986 257.825 152.453C258.311 154.921 259.511 157.187 261.273 158.966C263.035 160.745 265.28 161.956 267.723 162.447C270.167 162.938 272.7 162.686 275.002 161.723C277.304 160.76 279.272 159.13 280.656 157.038C282.04 154.947 282.779 152.488 282.779 149.972C282.776 146.599 281.448 143.366 279.086 140.981C276.724 138.597 273.521 137.256 270.181 137.252ZM270.181 156.546C268.891 156.546 267.63 156.16 266.557 155.436C265.484 154.712 264.648 153.684 264.154 152.48C263.66 151.277 263.531 149.952 263.783 148.675C264.035 147.397 264.656 146.223 265.568 145.302C266.481 144.381 267.643 143.754 268.908 143.5C270.174 143.245 271.486 143.376 272.678 143.874C273.87 144.373 274.889 145.217 275.605 146.3C276.322 147.383 276.705 148.657 276.705 149.96C276.705 151.707 276.018 153.382 274.794 154.617C273.571 155.852 271.911 156.546 270.181 156.546Z" fill="#263238"/>
<path d="M40.8188 168.812C38.3287 168.819 35.8967 169.571 33.8297 170.973C31.7628 172.375 30.1538 174.364 29.2059 176.689C28.2579 179.014 28.0137 181.57 28.5039 184.035C28.9941 186.5 30.1968 188.763 31.9601 190.538C33.7233 192.313 35.9681 193.521 38.4109 194.009C40.8537 194.497 43.3848 194.243 45.6847 193.279C47.9845 192.315 49.9499 190.685 51.3326 188.594C52.7152 186.503 53.4532 184.045 53.4532 181.531C53.4516 179.858 53.1234 178.202 52.4875 176.657C51.8515 175.112 50.9203 173.709 49.7469 172.528C48.5735 171.347 47.1811 170.41 45.6491 169.773C44.1172 169.135 42.4758 168.809 40.8188 168.812ZM40.8188 188.106C39.5296 188.098 38.2714 187.706 37.2032 186.977C36.1349 186.248 35.3044 185.216 34.8166 184.011C34.3288 182.806 34.2055 181.483 34.4623 180.207C34.7191 178.931 35.3445 177.761 36.2595 176.844C37.1745 175.927 38.3381 175.305 39.6034 175.055C40.8686 174.805 42.1788 174.939 43.3685 175.441C44.5583 175.942 45.5741 176.788 46.2879 177.872C47.0017 178.956 47.3814 180.23 47.379 181.531C47.379 182.399 47.209 183.259 46.8789 184.06C46.5488 184.862 46.065 185.59 45.4554 186.202C44.8457 186.814 44.1222 187.298 43.3265 187.627C42.5308 187.956 41.6786 188.123 40.8188 188.118V188.106Z" fill="#263238"/>
<path d="M79.0498 168.812C76.5576 168.809 74.1208 169.553 72.0474 170.949C69.9741 172.346 68.3575 174.331 67.4022 176.655C66.4468 178.979 66.1956 181.537 66.6803 184.005C67.165 186.473 68.3639 188.741 70.1253 190.521C71.8866 192.301 74.1313 193.514 76.5754 194.005C79.0195 194.497 81.5532 194.246 83.8558 193.284C86.1585 192.321 88.1268 190.691 89.5116 188.599C90.8964 186.507 91.6356 184.047 91.6356 181.531C91.6324 178.161 90.3057 174.929 87.9465 172.545C85.5872 170.161 82.3879 168.818 79.0498 168.812ZM79.0498 188.106C77.7585 188.108 76.4955 187.723 75.4208 187.001C74.3462 186.278 73.5081 185.249 73.0128 184.045C72.5176 182.841 72.3874 181.516 72.6387 180.237C72.89 178.958 73.5116 177.783 74.4247 176.862C75.3378 175.94 76.5013 175.312 77.7679 175.058C79.0345 174.805 80.3472 174.936 81.5398 175.436C82.7323 175.936 83.7511 176.782 84.467 177.867C85.1829 178.952 85.5637 180.227 85.5613 181.531C85.5613 183.276 84.8757 184.949 83.6549 186.184C82.4341 187.419 80.7779 188.115 79.0498 188.118V188.106Z" fill="#263238"/>
<path d="M117.269 168.812C114.777 168.812 112.342 169.558 110.27 170.955C108.198 172.353 106.583 174.34 105.63 176.664C104.676 178.988 104.427 181.545 104.913 184.013C105.399 186.48 106.599 188.746 108.361 190.525C110.123 192.304 112.367 193.515 114.811 194.006C117.255 194.497 119.788 194.245 122.09 193.282C124.392 192.32 126.359 190.689 127.744 188.598C129.128 186.506 129.867 184.047 129.867 181.531C129.864 178.159 128.535 174.925 126.173 172.541C123.811 170.156 120.609 168.815 117.269 168.812ZM117.269 188.106C115.978 188.106 114.716 187.719 113.643 186.995C112.57 186.27 111.734 185.241 111.241 184.037C110.747 182.832 110.619 181.507 110.871 180.229C111.124 178.951 111.747 177.778 112.66 176.857C113.574 175.936 114.737 175.31 116.004 175.057C117.27 174.805 118.582 174.937 119.774 175.437C120.966 175.938 121.984 176.784 122.699 177.869C123.414 178.953 123.795 180.228 123.793 181.531C123.793 183.278 123.105 184.953 121.882 186.189C120.658 187.424 118.999 188.118 117.269 188.118V188.106Z" fill="#263238"/>
<path d="M155.5 168.812C153.008 168.812 150.573 169.558 148.501 170.955C146.429 172.353 144.815 174.34 143.861 176.664C142.908 178.988 142.658 181.545 143.144 184.013C143.63 186.48 144.83 188.746 146.592 190.525C148.354 192.304 150.599 193.515 153.042 194.006C155.486 194.497 158.019 194.245 160.321 193.282C162.623 192.32 164.591 190.689 165.975 188.598C167.359 186.506 168.098 184.047 168.098 181.531C168.095 178.159 166.766 174.925 164.405 172.541C162.043 170.156 158.84 168.815 155.5 168.812ZM155.5 188.106C154.21 188.106 152.948 187.719 151.876 186.996C150.803 186.272 149.967 185.243 149.473 184.04C148.979 182.836 148.85 181.512 149.102 180.234C149.353 178.956 149.975 177.783 150.887 176.861C151.799 175.94 152.962 175.313 154.227 175.059C155.493 174.805 156.804 174.935 157.997 175.434C159.189 175.932 160.207 176.776 160.924 177.86C161.641 178.943 162.024 180.216 162.024 181.519C162.025 182.385 161.858 183.243 161.531 184.043C161.204 184.844 160.723 185.571 160.117 186.184C159.511 186.797 158.792 187.284 157.999 187.615C157.207 187.947 156.358 188.118 155.5 188.118V188.106Z" fill="#263238"/>
<path d="M193.731 168.812C191.239 168.809 188.802 169.553 186.729 170.949C184.656 172.346 183.039 174.331 182.084 176.655C181.128 178.979 180.877 181.537 181.362 184.005C181.846 186.473 183.045 188.741 184.807 190.521C186.568 192.301 188.813 193.514 191.257 194.005C193.701 194.497 196.235 194.246 198.537 193.284C200.84 192.321 202.808 190.691 204.193 188.599C205.578 186.507 206.317 184.047 206.317 181.531C206.314 178.161 204.987 174.929 202.628 172.545C200.269 170.161 197.069 168.818 193.731 168.812ZM193.731 188.106C192.441 188.106 191.18 187.719 190.107 186.996C189.034 186.272 188.198 185.243 187.704 184.04C187.21 182.836 187.081 181.512 187.333 180.234C187.585 178.956 188.206 177.783 189.118 176.862C190.031 175.94 191.193 175.313 192.458 175.059C193.724 174.805 195.036 174.935 196.228 175.434C197.42 175.932 198.439 176.776 199.155 177.86C199.872 178.943 200.255 180.216 200.255 181.519C200.256 182.385 200.089 183.243 199.762 184.043C199.435 184.844 198.954 185.571 198.348 186.184C197.742 186.797 197.023 187.284 196.231 187.615C195.438 187.947 194.589 188.118 193.731 188.118V188.106Z" fill="#263238"/>
<path d="M231.95 168.812C229.459 168.812 227.023 169.558 224.951 170.955C222.879 172.353 221.265 174.34 220.311 176.664C219.358 178.988 219.108 181.545 219.594 184.013C220.08 186.48 221.28 188.746 223.042 190.525C224.804 192.304 227.049 193.515 229.492 194.006C231.936 194.497 234.469 194.245 236.771 193.282C239.073 192.32 241.041 190.689 242.425 188.598C243.809 186.506 244.548 184.047 244.548 181.531C244.545 178.159 243.217 174.925 240.855 172.541C238.493 170.156 235.29 168.815 231.95 168.812ZM231.95 188.106C230.659 188.106 229.398 187.719 228.325 186.995C227.252 186.27 226.415 185.241 225.922 184.037C225.429 182.832 225.3 181.507 225.553 180.229C225.805 178.951 226.428 177.778 227.342 176.857C228.255 175.936 229.419 175.31 230.685 175.057C231.951 174.805 233.263 174.937 234.455 175.437C235.647 175.938 236.665 176.784 237.38 177.869C238.096 178.953 238.476 180.228 238.474 181.531C238.474 183.278 237.787 184.953 236.563 186.189C235.34 187.424 233.68 188.118 231.95 188.118V188.106Z" fill="#263238"/>
<path d="M270.181 168.812C267.69 168.812 265.254 169.558 263.182 170.955C261.11 172.353 259.496 174.34 258.542 176.664C257.589 178.988 257.339 181.545 257.825 184.013C258.311 186.48 259.511 188.746 261.273 190.525C263.035 192.304 265.28 193.515 267.723 194.006C270.167 194.497 272.7 194.245 275.002 193.282C277.304 192.32 279.272 190.689 280.656 188.598C282.04 186.506 282.779 184.047 282.779 181.531C282.776 178.159 281.448 174.925 279.086 172.541C276.724 170.156 273.521 168.815 270.181 168.812ZM270.181 188.106C268.891 188.106 267.63 187.719 266.557 186.996C265.484 186.272 264.648 185.243 264.154 184.04C263.66 182.836 263.531 181.512 263.783 180.234C264.035 178.956 264.656 177.783 265.568 176.861C266.481 175.94 267.643 175.313 268.908 175.059C270.174 174.805 271.486 174.935 272.678 175.434C273.87 175.932 274.889 176.776 275.605 177.86C276.322 178.943 276.705 180.216 276.705 181.519C276.706 182.385 276.539 183.243 276.212 184.043C275.885 184.844 275.404 185.571 274.798 186.184C274.192 186.797 273.473 187.284 272.681 187.615C271.888 187.947 271.039 188.118 270.181 188.118V188.106Z" fill="#263238"/>
<path d="M40.8188 200.384C38.3282 200.391 35.8957 201.143 33.8285 202.546C31.7613 203.948 30.1523 205.938 29.2047 208.264C28.2571 210.589 28.0136 213.146 28.5048 215.611C28.9959 218.077 30.1998 220.34 31.9644 222.114C33.7289 223.889 35.9748 225.096 38.4183 225.582C40.8619 226.069 43.3934 225.813 45.6931 224.847C47.9927 223.882 49.9572 222.249 51.3385 220.157C52.7197 218.064 53.4556 215.605 53.4532 213.091C53.45 211.419 53.1207 209.764 52.484 208.22C51.8473 206.677 50.9158 205.275 49.7426 204.095C48.5694 202.915 47.1775 201.98 45.6463 201.343C44.1152 200.706 42.4748 200.38 40.8188 200.384ZM40.8188 219.677C39.5301 219.67 38.2724 219.278 37.2044 218.55C36.1364 217.821 35.3059 216.79 34.8177 215.586C34.3296 214.382 34.2055 213.059 34.4614 211.783C34.7172 210.508 35.3414 209.338 36.2552 208.42C37.169 207.503 38.3314 206.879 39.5959 206.628C40.8604 206.377 42.1702 206.51 43.3601 207.009C44.55 207.509 45.5668 208.353 46.282 209.435C46.9972 210.518 47.3789 211.79 47.379 213.091C47.379 213.959 47.209 214.818 46.8789 215.62C46.5488 216.421 46.065 217.149 45.4553 217.761C44.8457 218.373 44.1222 218.858 43.3265 219.187C42.5308 219.515 41.6786 219.682 40.8188 219.677Z" fill="#263238"/>
<path d="M117.269 200.384C114.777 200.384 112.342 201.13 110.27 202.527C108.198 203.925 106.583 205.911 105.63 208.235C104.676 210.56 104.427 213.117 104.913 215.584C105.399 218.052 106.599 220.318 108.361 222.097C110.123 223.876 112.367 225.087 114.811 225.578C117.255 226.069 119.788 225.817 122.09 224.854C124.392 223.892 126.359 222.261 127.744 220.17C129.128 218.078 129.867 215.619 129.867 213.103C129.864 209.731 128.535 206.497 126.173 204.113C123.811 201.728 120.609 200.387 117.269 200.384ZM117.269 219.677C115.979 219.677 114.717 219.291 113.644 218.567C112.572 217.844 111.735 216.815 111.242 215.611C110.748 214.408 110.619 213.083 110.87 211.806C111.122 210.528 111.744 209.354 112.656 208.433C113.568 207.512 114.731 206.885 115.996 206.631C117.262 206.377 118.573 206.507 119.765 207.005C120.957 207.504 121.976 208.348 122.693 209.431C123.41 210.515 123.793 211.788 123.793 213.091C123.793 213.956 123.624 214.812 123.296 215.611C122.968 216.41 122.488 217.137 121.882 217.748C121.276 218.36 120.557 218.845 119.765 219.176C118.974 219.507 118.126 219.677 117.269 219.677Z" fill="#263238"/>
<path d="M155.5 200.384C153.008 200.384 150.573 201.13 148.501 202.527C146.429 203.925 144.815 205.911 143.861 208.235C142.908 210.56 142.658 213.117 143.144 215.584C143.63 218.052 144.83 220.318 146.592 222.097C148.354 223.876 150.599 225.087 153.042 225.578C155.486 226.069 158.019 225.817 160.321 224.854C162.623 223.892 164.591 222.261 165.975 220.17C167.359 218.078 168.098 215.619 168.098 213.103C168.095 209.731 166.766 206.497 164.405 204.113C162.043 201.728 158.84 200.387 155.5 200.384ZM155.5 219.677C154.21 219.677 152.948 219.291 151.876 218.567C150.803 217.844 149.967 216.815 149.473 215.611C148.979 214.408 148.85 213.083 149.102 211.806C149.353 210.528 149.975 209.354 150.887 208.433C151.799 207.512 152.962 206.885 154.227 206.631C155.493 206.377 156.804 206.507 157.997 207.005C159.189 207.504 160.207 208.348 160.924 209.431C161.641 210.515 162.024 211.788 162.024 213.091C162.024 213.956 161.855 214.812 161.527 215.611C161.199 216.41 160.719 217.137 160.113 217.748C159.507 218.36 158.788 218.845 157.997 219.176C157.205 219.507 156.357 219.677 155.5 219.677Z" fill="#263238"/>
<path d="M193.731 200.384C191.24 200.384 188.804 201.13 186.732 202.527C184.66 203.925 183.046 205.911 182.092 208.235C181.139 210.56 180.889 213.117 181.375 215.584C181.861 218.052 183.061 220.318 184.823 222.097C186.585 223.876 188.83 225.087 191.274 225.578C193.717 226.069 196.25 225.817 198.552 224.854C200.854 223.892 202.822 222.261 204.206 220.17C205.59 218.078 206.329 215.619 206.329 213.103C206.326 209.731 204.998 206.497 202.636 204.113C200.274 201.728 197.071 200.387 193.731 200.384ZM193.731 219.677C192.441 219.677 191.18 219.291 190.107 218.567C189.034 217.844 188.198 216.815 187.704 215.611C187.21 214.408 187.081 213.083 187.333 211.806C187.585 210.528 188.206 209.354 189.118 208.433C190.031 207.512 191.193 206.885 192.459 206.631C193.724 206.377 195.036 206.507 196.228 207.005C197.42 207.504 198.439 208.348 199.156 209.431C199.872 210.515 200.255 211.788 200.255 213.091C200.255 213.956 200.086 214.812 199.758 215.611C199.431 216.41 198.95 217.137 198.344 217.748C197.738 218.36 197.019 218.845 196.228 219.176C195.436 219.507 194.588 219.677 193.731 219.677Z" fill="#263238"/>
<path d="M231.95 200.384C229.459 200.384 227.023 201.13 224.951 202.527C222.879 203.925 221.265 205.911 220.311 208.235C219.358 210.56 219.108 213.117 219.594 215.584C220.08 218.052 221.28 220.318 223.042 222.097C224.804 223.876 227.049 225.087 229.492 225.578C231.936 226.069 234.469 225.817 236.771 224.854C239.073 223.892 241.041 222.261 242.425 220.17C243.809 218.078 244.548 215.619 244.548 213.103C244.545 209.731 243.217 206.497 240.855 204.113C238.493 201.728 235.29 200.387 231.95 200.384ZM231.95 219.677C230.66 219.677 229.399 219.291 228.326 218.567C227.253 217.844 226.417 216.815 225.923 215.611C225.429 214.408 225.3 213.083 225.552 211.806C225.804 210.528 226.425 209.354 227.337 208.433C228.25 207.512 229.412 206.885 230.678 206.631C231.943 206.377 233.255 206.507 234.447 207.005C235.639 207.504 236.658 208.348 237.374 209.431C238.091 210.515 238.474 211.788 238.474 213.091C238.474 213.956 238.305 214.812 237.977 215.611C237.65 216.41 237.169 217.137 236.563 217.748C235.957 218.36 235.238 218.845 234.447 219.176C233.655 219.507 232.807 219.677 231.95 219.677Z" fill="#263238"/>
<path d="M270.181 200.384C267.69 200.384 265.254 201.13 263.182 202.527C261.11 203.925 259.496 205.911 258.542 208.235C257.589 210.56 257.339 213.117 257.825 215.584C258.311 218.052 259.511 220.318 261.273 222.097C263.035 223.876 265.28 225.087 267.723 225.578C270.167 226.069 272.7 225.817 275.002 224.854C277.304 223.892 279.272 222.261 280.656 220.17C282.04 218.078 282.779 215.619 282.779 213.103C282.776 209.731 281.448 206.497 279.086 204.113C276.724 201.728 273.521 200.387 270.181 200.384ZM270.181 219.677C268.891 219.677 267.63 219.291 266.557 218.567C265.484 217.844 264.648 216.815 264.154 215.611C263.66 214.408 263.531 213.083 263.783 211.806C264.035 210.528 264.656 209.354 265.568 208.433C266.481 207.512 267.643 206.885 268.908 206.631C270.174 206.377 271.486 206.507 272.678 207.005C273.87 207.504 274.889 208.348 275.605 209.431C276.322 210.515 276.705 211.788 276.705 213.091C276.705 213.956 276.536 214.812 276.208 215.611C275.88 216.41 275.4 217.137 274.794 217.748C274.188 218.36 273.469 218.845 272.678 219.176C271.886 219.507 271.038 219.677 270.181 219.677Z" fill="#263238"/>
<path d="M70.1452 222.081C70.4273 222.367 70.7625 222.593 71.1314 222.748C71.5004 222.903 71.896 222.982 72.2955 222.982C72.695 222.982 73.0905 222.903 73.4595 222.748C73.8285 222.593 74.1636 222.367 74.4457 222.081L79.0622 217.433L83.6786 222.081C84.2488 222.657 85.0223 222.981 85.8288 222.981C86.6353 222.981 87.4088 222.657 87.9791 222.081C88.5494 221.506 88.8698 220.725 88.8698 219.91C88.8698 219.096 88.5494 218.315 87.9791 217.739L83.3627 213.091L87.9791 208.442C88.2615 208.157 88.4855 207.818 88.6383 207.446C88.7911 207.073 88.8698 206.674 88.8698 206.271C88.8698 205.868 88.7911 205.469 88.6383 205.096C88.4855 204.724 88.2615 204.385 87.9791 204.1C87.6967 203.815 87.3615 203.589 86.9925 203.434C86.6236 203.28 86.2282 203.201 85.8288 203.201C85.4295 203.201 85.0341 203.28 84.6651 203.434C84.2962 203.589 83.9609 203.815 83.6786 204.1L79.0622 208.749L74.4457 204.1C74.1634 203.815 73.8281 203.589 73.4592 203.434C73.0902 203.28 72.6948 203.201 72.2955 203.201C71.8961 203.201 71.5007 203.28 71.1317 203.434C70.7628 203.589 70.4276 203.815 70.1452 204.1C69.8628 204.385 69.6388 204.724 69.486 205.096C69.3332 205.469 69.2545 205.868 69.2545 206.271C69.2545 206.674 69.3332 207.073 69.486 207.446C69.6388 207.818 69.8628 208.157 70.1452 208.442L74.7616 213.091L70.1452 217.739C69.8624 218.024 69.638 218.363 69.4849 218.735C69.3317 219.108 69.2529 219.507 69.2529 219.91C69.2529 220.314 69.3317 220.713 69.4849 221.086C69.638 221.458 69.8624 221.797 70.1452 222.081Z" fill="#263238"/>
<path d="M40.8188 231.943C38.3287 231.95 35.8967 232.702 33.8297 234.104C31.7628 235.506 30.1538 237.495 29.2059 239.82C28.2579 242.145 28.0137 244.701 28.5039 247.166C28.9941 249.631 30.1968 251.894 31.9601 253.669C33.7233 255.444 35.9681 256.652 38.4109 257.14C40.8537 257.628 43.3848 257.374 45.6847 256.41C47.9845 255.446 49.9499 253.816 51.3326 251.725C52.7152 249.634 53.4532 247.176 53.4532 244.662C53.4516 242.989 53.1234 241.333 52.4875 239.788C51.8515 238.243 50.9203 236.84 49.7469 235.659C48.5735 234.478 47.1811 233.541 45.6491 232.904C44.1172 232.266 42.4758 231.94 40.8188 231.943ZM40.8188 251.237C39.5296 251.229 38.2714 250.837 37.2032 250.108C36.1349 249.379 35.3044 248.347 34.8166 247.142C34.3288 245.938 34.2055 244.614 34.4623 243.338C34.7191 242.063 35.3445 240.892 36.2595 239.975C37.1745 239.058 38.3381 238.436 39.6034 238.186C40.8686 237.936 42.1788 238.07 43.3685 238.572C44.5583 239.073 45.5741 239.92 46.2879 241.004C47.0017 242.087 47.3814 243.361 47.379 244.662C47.3774 245.529 47.2063 246.388 46.8754 247.188C46.5446 247.988 46.0605 248.714 45.451 249.325C44.8416 249.936 44.1186 250.419 43.3237 250.747C42.5288 251.075 41.6776 251.242 40.8188 251.237Z" fill="#263238"/>
<path d="M79.0498 231.943C76.5582 231.943 74.1225 232.689 72.0508 234.086C69.9791 235.484 68.3644 237.471 67.4109 239.795C66.4574 242.119 66.2079 244.676 66.694 247.144C67.1801 249.611 68.3799 251.877 70.1418 253.656C71.9036 255.435 74.1483 256.647 76.5921 257.137C79.0359 257.628 81.5689 257.376 83.8709 256.414C86.1728 255.451 88.1404 253.821 89.5246 251.729C90.9089 249.637 91.6478 247.178 91.6478 244.662C91.6446 241.29 90.3162 238.057 87.9544 235.672C85.5925 233.287 82.39 231.946 79.0498 231.943ZM79.0498 251.237C77.7596 251.237 76.4983 250.85 75.4255 250.127C74.3526 249.403 73.5165 248.374 73.0227 247.171C72.529 245.967 72.3998 244.643 72.6515 243.365C72.9032 242.087 73.5245 240.914 74.4369 239.993C75.3492 239.071 76.5116 238.444 77.7771 238.19C79.0426 237.936 80.3543 238.066 81.5464 238.565C82.7384 239.063 83.7573 239.908 84.4741 240.991C85.1909 242.074 85.5736 243.347 85.5736 244.65C85.5736 245.515 85.4048 246.372 85.077 247.171C84.7491 247.97 84.2686 248.696 83.6628 249.308C83.057 249.919 82.3378 250.404 81.5464 250.735C80.7549 251.066 79.9065 251.237 79.0498 251.237Z" fill="#263238"/>
<path d="M117.269 231.943C114.777 231.943 112.342 232.689 110.27 234.086C108.198 235.484 106.583 237.471 105.63 239.795C104.676 242.119 104.427 244.676 104.913 247.144C105.399 249.611 106.599 251.877 108.361 253.656C110.123 255.435 112.367 256.647 114.811 257.137C117.255 257.628 119.788 257.376 122.09 256.414C124.392 255.451 126.359 253.821 127.744 251.729C129.128 249.637 129.867 247.178 129.867 244.662C129.864 241.29 128.535 238.057 126.173 235.672C123.811 233.287 120.609 231.946 117.269 231.943ZM117.269 251.237C115.979 251.237 114.717 250.85 113.644 250.127C112.572 249.403 111.735 248.374 111.242 247.171C110.748 245.967 110.619 244.643 110.87 243.365C111.122 242.087 111.744 240.914 112.656 239.993C113.568 239.071 114.731 238.444 115.996 238.19C117.262 237.936 118.573 238.066 119.765 238.565C120.957 239.063 121.976 239.908 122.693 240.991C123.41 242.074 123.793 243.347 123.793 244.65C123.793 245.515 123.624 246.372 123.296 247.171C122.968 247.97 122.488 248.696 121.882 249.308C121.276 249.919 120.557 250.404 119.765 250.735C118.974 251.066 118.126 251.237 117.269 251.237Z" fill="#263238"/>
<path d="M155.5 231.943C153.008 231.943 150.573 232.689 148.501 234.086C146.429 235.484 144.815 237.471 143.861 239.795C142.908 242.119 142.658 244.676 143.144 247.144C143.63 249.611 144.83 251.877 146.592 253.656C148.354 255.435 150.599 256.647 153.042 257.137C155.486 257.628 158.019 257.376 160.321 256.414C162.623 255.451 164.591 253.821 165.975 251.729C167.359 249.637 168.098 247.178 168.098 244.662C168.095 241.29 166.766 238.057 164.405 235.672C162.043 233.287 158.84 231.946 155.5 231.943ZM155.5 251.237C154.21 251.237 152.948 250.85 151.876 250.127C150.803 249.403 149.967 248.374 149.473 247.171C148.979 245.967 148.85 244.643 149.102 243.365C149.353 242.087 149.975 240.914 150.887 239.993C151.799 239.071 152.962 238.444 154.227 238.19C155.493 237.936 156.804 238.066 157.997 238.565C159.189 239.063 160.207 239.908 160.924 240.991C161.641 242.074 162.024 243.347 162.024 244.65C162.024 245.515 161.855 246.372 161.527 247.171C161.199 247.97 160.719 248.696 160.113 249.308C159.507 249.919 158.788 250.404 157.997 250.735C157.205 251.066 156.357 251.237 155.5 251.237Z" fill="#263238"/>
<path d="M193.731 231.943C191.24 231.943 188.804 232.689 186.732 234.086C184.66 235.484 183.046 237.471 182.092 239.795C181.139 242.119 180.889 244.676 181.375 247.144C181.861 249.611 183.061 251.877 184.823 253.656C186.585 255.435 188.83 256.647 191.274 257.137C193.717 257.628 196.25 257.376 198.552 256.414C200.854 255.451 202.822 253.821 204.206 251.729C205.59 249.637 206.329 247.178 206.329 244.662C206.326 241.29 204.998 238.057 202.636 235.672C200.274 233.287 197.071 231.946 193.731 231.943ZM193.731 251.237C192.441 251.237 191.18 250.85 190.107 250.127C189.034 249.403 188.198 248.374 187.704 247.171C187.21 245.967 187.081 244.643 187.333 243.365C187.585 242.087 188.206 240.914 189.118 239.993C190.031 239.071 191.193 238.444 192.459 238.19C193.724 237.936 195.036 238.066 196.228 238.565C197.42 239.063 198.439 239.908 199.156 240.991C199.872 242.074 200.255 243.347 200.255 244.65C200.255 245.515 200.086 246.372 199.758 247.171C199.431 247.97 198.95 248.696 198.344 249.308C197.738 249.919 197.019 250.404 196.228 250.735C195.436 251.066 194.588 251.237 193.731 251.237Z" fill="#263238"/>
<path d="M181.704 20.6062H176.845V15.7C176.845 15.3746 176.717 15.0627 176.489 14.8326C176.261 14.6026 175.952 14.4734 175.63 14.4734C175.308 14.4734 174.999 14.6026 174.771 14.8326C174.543 15.0627 174.415 15.3746 174.415 15.7V20.6062H169.556C169.233 20.6062 168.924 20.7354 168.697 20.9655C168.469 21.1955 168.341 21.5075 168.341 21.8328C168.341 22.1581 168.469 22.47 168.697 22.7001C168.924 22.9301 169.233 23.0593 169.556 23.0593H174.415V27.9656C174.415 28.2909 174.543 28.6029 174.771 28.8329C174.999 29.0629 175.308 29.1921 175.63 29.1921C175.952 29.1921 176.261 29.0629 176.489 28.8329C176.717 28.6029 176.845 28.2909 176.845 27.9656V23.0593H181.704C182.026 23.0593 182.335 22.9301 182.563 22.7001C182.791 22.47 182.919 22.1581 182.919 21.8328C182.919 21.5075 182.791 21.1955 182.563 20.9655C182.335 20.7354 182.026 20.6062 181.704 20.6062Z" fill="#FFDD00"/>
<path d="M280.07 288.733H275.211V283.827C275.211 283.501 275.083 283.189 274.855 282.959C274.627 282.729 274.318 282.6 273.996 282.6C273.674 282.6 273.365 282.729 273.137 282.959C272.909 283.189 272.781 283.501 272.781 283.827V288.733H267.922C267.599 288.733 267.29 288.862 267.063 289.092C266.835 289.322 266.707 289.634 266.707 289.959C266.707 290.285 266.835 290.597 267.063 290.827C267.29 291.057 267.599 291.186 267.922 291.186H272.781V296.092C272.781 296.418 272.909 296.73 273.137 296.96C273.365 297.19 273.674 297.319 273.996 297.319C274.318 297.319 274.627 297.19 274.855 296.96C275.083 296.73 275.211 296.418 275.211 296.092V291.186H280.07C280.392 291.186 280.701 291.057 280.929 290.827C281.157 290.597 281.285 290.285 281.285 289.959C281.285 289.634 281.157 289.322 280.929 289.092C280.701 288.862 280.392 288.733 280.07 288.733Z" fill="#40BDFF"/>
<path d="M80.8235 30.48C79.3818 30.48 77.9726 30.0484 76.7739 29.2397C75.5752 28.431 74.641 27.2817 74.0893 25.9369C73.5376 24.5922 73.3932 23.1124 73.6745 21.6849C73.9557 20.2573 74.65 18.946 75.6693 17.9167C76.6887 16.8875 77.9875 16.1866 79.4015 15.9026C80.8154 15.6187 82.281 15.7644 83.6129 16.3214C84.9448 16.8784 86.0832 17.8217 86.8841 19.032C87.6851 20.2422 88.1126 21.6651 88.1126 23.1206C88.1126 25.0724 87.3446 26.9443 85.9776 28.3245C84.6107 29.7046 82.7567 30.48 80.8235 30.48ZM80.8235 18.2144C79.8624 18.2144 78.9229 18.5021 78.1238 19.0412C77.3246 19.5803 76.7018 20.3466 76.334 21.2431C75.9662 22.1396 75.87 23.1261 76.0575 24.0778C76.245 25.0295 76.7078 25.9037 77.3874 26.5899C78.067 27.276 78.9329 27.7433 79.8755 27.9326C80.8181 28.1219 81.7952 28.0247 82.6831 27.6534C83.571 27.2821 84.33 26.6532 84.8639 25.8464C85.3979 25.0395 85.6829 24.091 85.6829 23.1206C85.6829 21.8194 85.1709 20.5715 84.2596 19.6514C83.3483 18.7313 82.1123 18.2144 80.8235 18.2144Z" fill="#40BDFF"/>
<path d="M236.737 36.5515C235.295 36.5515 233.886 36.1199 232.687 35.3112C231.488 34.5026 230.554 33.3532 230.002 32.0085C229.451 30.6637 229.306 29.184 229.588 27.7564C229.869 26.3288 230.563 25.0175 231.582 23.9883C232.602 22.9591 233.901 22.2581 235.315 21.9742C236.728 21.6902 238.194 21.836 239.526 22.393C240.858 22.95 241.996 23.8932 242.797 25.1035C243.598 26.3137 244.026 27.7366 244.026 29.1921C244.026 31.144 243.258 33.0159 241.891 34.396C240.524 35.7762 238.67 36.5515 236.737 36.5515ZM236.737 24.2859C235.775 24.2859 234.836 24.5736 234.037 25.1127C233.238 25.6518 232.615 26.4181 232.247 27.3146C231.879 28.2111 231.783 29.1976 231.971 30.1493C232.158 31.101 232.621 31.9752 233.3 32.6614C233.98 33.3475 234.846 33.8148 235.789 34.0041C236.731 34.1934 237.708 34.0963 238.596 33.7249C239.484 33.3536 240.243 32.7247 240.777 31.9179C241.311 31.1111 241.596 30.1625 241.596 29.1921C241.596 27.8909 241.084 26.643 240.173 25.7229C239.261 24.8028 238.025 24.2859 236.737 24.2859Z" fill="#40BDFF"/>
<path d="M168.098 300.508C166.656 300.508 165.247 300.076 164.048 299.268C162.85 298.459 161.915 297.309 161.364 295.965C160.812 294.62 160.668 293.14 160.949 291.713C161.23 290.285 161.924 288.974 162.944 287.945C163.963 286.915 165.262 286.214 166.676 285.93C168.09 285.647 169.555 285.792 170.887 286.349C172.219 286.906 173.358 287.85 174.159 289.06C174.959 290.27 175.387 291.693 175.387 293.148C175.387 295.1 174.619 296.972 173.252 298.352C171.885 299.732 170.031 300.508 168.098 300.508ZM168.098 288.242C167.137 288.242 166.197 288.53 165.398 289.069C164.599 289.608 163.976 290.374 163.608 291.271C163.241 292.167 163.144 293.154 163.332 294.106C163.519 295.057 163.982 295.932 164.662 296.618C165.341 297.304 166.207 297.771 167.15 297.96C168.093 298.15 169.07 298.053 169.957 297.681C170.845 297.31 171.604 296.681 172.138 295.874C172.672 295.067 172.957 294.119 172.957 293.148C172.957 291.847 172.445 290.599 171.534 289.679C170.623 288.759 169.387 288.242 168.098 288.242Z" fill="#FFDD00"/>
<path d="M39.4824 290.021H36.336L38.5591 287.776C38.7582 287.541 38.8622 287.24 38.8504 286.931C38.8385 286.622 38.7118 286.329 38.4954 286.111C38.2791 285.893 37.989 285.765 37.6833 285.753C37.3776 285.741 37.0786 285.846 36.8462 286.047L34.623 288.242V285.065C34.623 284.74 34.4951 284.428 34.2672 284.198C34.0394 283.968 33.7304 283.839 33.4082 283.839C33.086 283.839 32.777 283.968 32.5492 284.198C32.3214 284.428 32.1934 284.74 32.1934 285.065V288.242L29.9702 285.998C29.7378 285.797 29.4389 285.692 29.1331 285.704C28.8274 285.716 28.5373 285.843 28.321 286.062C28.1046 286.28 27.9779 286.573 27.9661 286.882C27.9542 287.191 28.0582 287.492 28.2573 287.727L30.4804 289.972H27.334C27.0118 289.972 26.7028 290.101 26.475 290.331C26.2471 290.561 26.1191 290.873 26.1191 291.198C26.1191 291.524 26.2471 291.836 26.475 292.066C26.7028 292.296 27.0118 292.425 27.334 292.425H30.4804L28.2573 294.669C28.0582 294.904 27.9542 295.206 27.9661 295.515C27.9779 295.823 28.1046 296.116 28.321 296.335C28.5373 296.553 28.8274 296.681 29.1331 296.693C29.4389 296.705 29.7378 296.6 29.9702 296.399L32.1934 294.154V297.331C32.1934 297.656 32.3214 297.968 32.5492 298.198C32.777 298.428 33.086 298.558 33.4082 298.558C33.7304 298.558 34.0394 298.428 34.2672 298.198C34.4951 297.968 34.623 297.656 34.623 297.331V294.154L36.8462 296.399C37.0786 296.6 37.3776 296.705 37.6833 296.693C37.989 296.681 38.2791 296.553 38.4954 296.335C38.7118 296.116 38.8385 295.823 38.8504 295.515C38.8622 295.206 38.7582 294.904 38.5591 294.669L36.336 292.425H39.4824C39.8046 292.425 40.1136 292.296 40.3414 292.066C40.5693 291.836 40.6973 291.524 40.6973 291.198C40.6973 290.873 40.5693 290.561 40.3414 290.331C40.1136 290.101 39.8046 289.972 39.4824 289.972V290.021Z" fill="#40BDFF"/>
</svg>
